<svg width="170" height="107" viewBox="0 0 170 107" fill="none" xmlns="http://www.w3.org/2000/svg">
<path d="M43.606 0c12.546 0 22.353 3.567 29.421 10.702 8.423 8.449 12.634 22.46 12.634 42.033 0 19.527-4.24 33.561-12.722 42.104-7.01 7.041-16.787 10.561-29.333 10.561-12.605 0-22.766-3.861-30.482-11.582C5.408 86.097 1.55 72.332 1.55 52.524c0-19.432 4.241-33.42 12.723-41.963C21.282 3.52 31.06 0 43.606 0Zm0 16.405c-3.004 0-5.684.763-8.04 2.288-2.356 1.526-4.182 4.26-5.478 8.203-1.708 5.116-2.562 13.729-2.562 25.839s.765 20.43 2.297 24.96c1.531 4.529 3.46 7.545 5.787 9.047 2.326 1.502 4.992 2.253 7.996 2.253 3.004 0 5.684-.763 8.04-2.288 2.356-1.526 4.182-4.26 5.478-8.203 1.708-5.069 2.562-13.659 2.562-25.769 0-12.11-.766-20.43-2.297-24.959-1.532-4.53-3.461-7.557-5.787-9.083-2.327-1.525-4.992-2.288-7.996-2.288Zm37.668 60.691 24.738-2.042c.707 4.46 2.798 7.992 6.273 10.597 3.475 2.605 7.481 3.907 12.016 3.907 5.183 0 9.572-1.678 13.165-5.034s5.389-8.414 5.389-15.173c0-6.336-1.782-11.089-5.345-14.257-3.564-3.168-8.202-4.753-13.916-4.753-7.127 0-13.518 2.512-19.172 7.534l-20.144-2.323L97 1.831h65.646v18.517h-46.827l-3.887 17.531c5.537-2.206 11.191-3.309 16.963-3.309 11.015 0 20.351 3.192 28.008 9.575 7.657 6.384 11.486 14.669 11.486 24.854 0 8.496-3.092 16.077-9.277 22.742-8.423 9.106-20.115 13.659-35.076 13.659-11.957 0-21.705-2.558-29.245-7.674-7.539-5.117-12.045-11.993-13.517-20.63Z" stroke="url(#paint0_linear)" stroke-width="2"/>
<defs>
<linearGradient id="paint0_linear" x1="83.5" y1="-14.0001" x2="83.5" y2="82.9999" gradientUnits="userSpaceOnUse">
<stop stop-color="#8B8B8B"/>
<stop offset="1" stop-color="#8B8B8B" stop-opacity="0"/>
</linearGradient>
</defs>
</svg>
