<svg viewBox="0 0 20 20" xmlns="http://www.w3.org/2000/svg" xml:space="preserve"
    style="fill-rule:evenodd;clip-rule:evenodd;stroke-linejoin:round;stroke-miterlimit:2" width="20" height="20">
    <path
        d="M7.225 4.207H4.627c-.259 0-.459.261-.459.601v.889H.975l1.277 1.701h3.195v-.89c0-.34.2-.627.459-.627h1.679l.08-.053v-.994c0-.392-.24-.627-.44-.627ZM10.079.862c.26.314.818 1.15.818 2.404v3.007c0 1.177-.459 2.328-1.237 2.903l-5.472 4.002v.942h2.318l4.451-3.243c.779-.576 1.238-1.727 1.238-2.904V4.965c0-.915-.339-2.796-2.116-4.103Zm.818 17.438H.975L2.272 20h9.943v-4.182l-1.318-1.698v4.18Zm3.637-14.117h-1.298l1.298 1.673V4.183ZM17.727 18.3h-3.193l1.297 1.7h3.194V1.699L17.727 0v18.3Z"
        style="fill=#fff" />
</svg>