<svg viewBox="0 0 28 28" xmlns="http://www.w3.org/2000/svg" xml:space="preserve" style="fill-rule:evenodd;clip-rule:evenodd;stroke-linejoin:round;stroke-miterlimit:2" width="28" height="28"><path style="fill:#fc0" d="M-24.92-14.012h72.342v57.39H-24.92z"/><path style="fill:none" d="M-11.445-8.502h50.889v45.004h-50.889z"/><path d="M14.004.886s-.319.702-.913 1.115c-.011-.005.913 1.12.913 2.505 0-1.385.924-2.511.913-2.505-.594-.413-.913-1.115-.913-1.115" style="fill:#1b0dff;fill-rule:nonzero"/><path d="M14.35 3.474c.17-.303.428-.569.804-.679.135-.039.301-.05.405.035.121.099.096.282-.004.398-.1.115-.254.182-.397.255a2.362 2.362 0 0 0-.7.518 1.507 1.507 0 0 0-.339.717c-.089-.418.019-.868.231-1.245" style="fill:#1b0dff;fill-rule:nonzero"/><path d="M15.163 3.783c.33-.171.711-.269 1.093-.178.138.033.283.104.317.226.04.141-.095.283-.251.331-.155.048-.326.029-.49.021a2.699 2.699 0 0 0-.906.094 1.84 1.84 0 0 0-.728.435c.185-.393.554-.717.965-.93m-2.326.008c-.33-.171-.711-.269-1.093-.178-.138.033-.283.104-.317.226-.04.141.095.283.25.331.155.048.326.029.49.021.306-.016.617.007.906.094.283.085.525.244.728.435-.185-.393-.554-.717-.965-.93" style="fill:#1b0dff;fill-rule:nonzero"/><path d="M13.659 3.474c-.17-.303-.428-.569-.804-.679-.135-.039-.301-.05-.405.035-.121.099-.096.282.004.398.1.115.254.182.397.255.265.135.511.305.7.518.184.208.288.459.339.717.089-.418-.019-.868-.23-1.245m5.571 7.86a.97.97 0 0 1 .255.653c0 .551-.522 1.114-1.986 1.114h-.013V7.136c0-.788.191-1.452.815-1.575V5.45h-3.918v.111c.623.124.814.788.814 1.575v4.501c0 .788-.191 1.452-.814 1.575v.112h4.44c1.87 0 2.671-.933 2.671-1.912 0-.596-.292-1.193-.801-1.62l-1.462 1.542Zm-10.459 0a.969.969 0 0 0-.255.653c0 .551.522 1.114 1.986 1.114h.013V7.136c0-.788-.191-1.452-.815-1.575V5.45h3.918v.111c-.623.124-.814.788-.814 1.575v4.501c0 .788.191 1.452.814 1.575v.112H9.178c-1.87 0-2.671-.933-2.671-1.912 0-.596.292-1.193.801-1.62l1.462 1.542Zm10.459 5.334a.97.97 0 0 0 .255-.653c0-.551-.522-1.114-1.986-1.114h-.013v5.964c0 .788.191 1.452.815 1.575v.111h-3.918v-.111c.623-.124.814-.788.814-1.575v-4.501c0-.788-.191-1.452-.814-1.575v-.112h4.44c1.87 0 2.671.933 2.671 1.912 0 .596-.292 1.193-.801 1.62l-1.462-1.542Zm-10.459 0a.969.969 0 0 1-.255-.653c0-.551.522-1.114 1.986-1.114h.013v5.964c0 .788-.191 1.452-.815 1.575v.111h3.918v-.111c-.623-.124-.814-.788-.814-1.575v-4.501c0-.788.191-1.452.814-1.575v-.112H9.178c-1.87 0-2.671.933-2.671 1.912 0 .596.292 1.193.801 1.62l1.462-1.542Zm5.233 10.481s-.319-.702-.913-1.115c-.011.006.913-1.12.913-2.505 0 1.385.924 2.511.913 2.505-.594.413-.913 1.115-.913 1.115" style="fill:#1b0dff;fill-rule:nonzero"/><path d="M14.35 24.56c.17.303.428.569.804.679.135.039.301.05.405-.035.121-.099.096-.282-.004-.398-.1-.115-.254-.182-.397-.255a2.362 2.362 0 0 1-.7-.518 1.507 1.507 0 0 1-.339-.717c-.089.418.019.868.231 1.245" style="fill:#1b0dff;fill-rule:nonzero"/><path d="M15.163 24.251c.33.171.711.269 1.093.178.138-.033.283-.104.317-.226.04-.141-.095-.283-.251-.331-.155-.048-.326-.029-.49-.021a2.673 2.673 0 0 1-.906-.094 1.84 1.84 0 0 1-.728-.435c.185.393.554.717.965.929m-2.326-.008c-.33.171-.711.269-1.093.178-.138-.033-.283-.104-.317-.226-.04-.141.095-.283.25-.331.155-.048.326-.029.49-.021.306.016.617-.007.906-.094a1.84 1.84 0 0 0 .728-.435c-.185.393-.554.717-.965.93" style="fill:#1b0dff;fill-rule:nonzero"/><path d="M13.659 24.56c-.17.303-.428.569-.804.679-.135.039-.301.05-.405-.035-.121-.099-.096-.282.004-.398.1-.115.254-.182.397-.255.265-.135.511-.305.7-.518.184-.208.288-.459.339-.717.089.418-.019.868-.23 1.245m12.968-10.557s-.794-.282-1.261-.808c.006-.01-1.267.808-2.833.808 1.566 0 2.839.818 2.833.808.467-.525 1.261-.808 1.261-.808" style="fill:#1b0dff;fill-rule:nonzero"/><path d="M23.701 14.309c.343.15.644.378.768.711.045.12.057.266-.04.358-.112.107-.319.085-.45-.004-.131-.089-.206-.225-.288-.351a2.21 2.21 0 0 0-.586-.619 1.949 1.949 0 0 0-.811-.3c.473-.079.981.017 1.408.204" style="fill:#1b0dff;fill-rule:nonzero"/><path d="M23.351 15.029c.194.292.304.628.201.967-.037.122-.117.25-.256.28-.16.035-.32-.084-.374-.221-.054-.138-.033-.288-.024-.433a1.876 1.876 0 0 0-.107-.802 1.614 1.614 0 0 0-.492-.644c.444.163.81.49 1.051.853m-.009-2.057c.194-.292.304-.628.201-.967-.037-.122-.117-.25-.256-.28-.16-.035-.32.084-.374.221-.054.137-.033.288-.024.433.018.27-.008.545-.107.802-.096.25-.276.465-.492.644.444-.163.81-.49 1.051-.853" style="fill:#1b0dff;fill-rule:nonzero"/><path d="M23.701 13.698c.343-.151.644-.378.768-.711.045-.12.057-.266-.04-.358-.112-.107-.319-.085-.45.004-.131.089-.206.225-.288.351a2.21 2.21 0 0 1-.586.619 1.949 1.949 0 0 1-.811.3c.473.079.981-.017 1.408-.204m-22.019.305s.794-.282 1.261-.808c-.006-.01 1.267.808 2.833.808-1.566 0-2.839.818-2.833.808-.467-.525-1.261-.808-1.261-.808" style="fill:#1b0dff;fill-rule:nonzero"/><path d="M4.607 14.309c-.343.15-.644.378-.768.711-.045.12-.057.266.04.358.112.107.319.085.45-.004.131-.089.206-.225.288-.351a2.21 2.21 0 0 1 .586-.619c.235-.162.519-.255.811-.3-.473-.079-.981.017-1.408.204" style="fill:#1b0dff;fill-rule:nonzero"/><path d="M4.957 15.029c-.194.292-.304.628-.201.967.037.122.117.25.256.28.16.035.32-.084.374-.221.054-.138.033-.288.024-.433-.018-.27.008-.545.107-.802.096-.25.276-.464.492-.644-.444.163-.81.49-1.051.853m.009-2.057c-.194-.292-.304-.628-.201-.967.037-.122.117-.25.256-.28.16-.035.32.084.374.221.054.137.033.288.024.433-.018.27.008.545.107.802.096.25.276.465.492.644a2.209 2.209 0 0 1-1.051-.853" style="fill:#1b0dff;fill-rule:nonzero"/><path d="M4.607 13.698c-.343-.151-.644-.378-.768-.711-.045-.12-.057-.266.04-.358.112-.107.319-.085.45.004.131.089.206.225.288.351.153.235.345.452.586.619.235.162.519.255.811.3-.473.079-.981-.017-1.408-.204" style="fill:#1b0dff;fill-rule:nonzero"/></svg>