<svg viewBox="0 0 20 20" xmlns="http://www.w3.org/2000/svg" xml:space="preserve" style="fill-rule:evenodd;clip-rule:evenodd;stroke-linejoin:round;stroke-miterlimit:2" width="20" height="20"><path d="M8.439 2.919c.199 0 .359.164.359.363a.363.363 0 0 1-.359.363.363.363 0 1 1 0-.727Zm2.535 0c.199 0 .363.164.363.363a.365.365 0 0 1-.363.363.366.366 0 0 1-.363-.363c0-.199.165-.363.363-.363ZM8.253 8.256s2.354.925 3.803.318c.761 2.588-4.488 2.424-3.803-.318Zm-1.739-.831s.517 0 .517-.342c0-.346.513-.171.342.342-.171.517-.171 3.783 3.695 3.611-.091.171.415.772.23 1.341-.255.779-1.271 1.973-1.844 2.354-.576.381-1.924-.223-1.994-.859-.087-.772-.429-2.319-.859-2.665-.429-.343-.517-.688-1.205-.601 0 0 .775-1.376.517-2.577 0 0-.171-.433 0-.517.171-.087.601-.087.601-.087Zm2.766 8.368c-.339.332 3.273-2.493 4.446-7.149 0 0 2.124 2.123.385 5.217-1.739 3.091-4.831 1.931-4.831 1.931Zm2.319.772s.677 2.249-.677 3.189c1.823.125 5.001.398 6.548-.912 1.39-1.177 1.219-3.109-.74-3.611-.437-.112-.981-.143-1.652-.017-2.609.482-3.479 1.351-3.479 1.351Zm-2.029-.097c.077.977-.07 2.633-.87 3.287 1.478 0 2.767-1.327 2.383-2.829-.14-.535-.601-.618-1.513-.457ZM5.9 12.025s-3.094-2.127-4.058.967c-.797 2.543.604 5.738 3.349 6.451.915.241 2.067.307 3.028-.367 1.931-1.351 0-2.993-.388-3.283-.387-.289-1.547-1.837-1.931-3.768ZM4.643 9.028s.084-.165.22-.276c.255-.206.744-.073.576.419-.147.44-.527 1.355-1.183 1.501-.87.192-2.029.095-2.413-.967-.241-.663-.031-1.477.325-1.973.419-.579 1.896-.761 1.896.137 0 .775.098 1.645.58 1.159Zm11.305 2.029s.905.181 1.237.684c.311.468-.021 1.551-.559 1.733-.29.098 1.253.384 1.543-1.16 0 0 .486 1.062-.192 1.74-.677.674-2.997.482-2.997.482-.345-1.041-.021-2.885.967-3.479ZM2.145.977S4.516.362 5.219.715c1.421.713 1.1 3.573.621 4.869-.234.633-.593.926-1.502.926-1.404 0-1.753-.179-1.841-1.405-.087-1.229.088-3.426-.353-4.128ZM17.268.722s-.873.699-.611 2.179c.178.999.077 1.959-.196 2.504-.423.852-2.64.88-3.028.025-.437-.957-.349-3.922 0-4.446.349-.521 1.568-.87 3.835-.262ZM7.053.433s3.195-.971 4.739-.004c0 0 .775.388.58 2.512-.273 3.021.335 3.405 2.899 4.348 1.837.677 1.935 2.707 1.935 3.095 0 .384-.485.286-.677-.098-.192-.388-.29.384-.677.29-.385-.098-.482-.29-.482-.678 0-.384-.482-1.931-1.931-1.833-1.055.07-2.819.038-3.929-.171-1.453-.269-2.466-1.551-2.546-3.017-.098-1.739.091-4.443.091-4.443Z" style="fill:#fff"/></svg>