<svg viewBox="0 0 20 20" xmlns="http://www.w3.org/2000/svg" width="20" height="20">
    <path
        d="M9.257 7.037H3.905v.595h5.352a.297.297 0 0 1 0 .594h-.595a.297.297 0 0 0 0 .594h.595a.893.893 0 0 0 0-1.784z"
        fill="#85453d" style="fill:#af6960" />
    <path
        d="M11.635 7.631h5.352v-.595h-5.352a.893.893 0 0 0 0 1.784h.595a.297.297 0 0 0 0-.594h-.595a.297.297 0 0 1 0-.594z"
        fill="#fff0d3" style="fill:#c7a257" />
    <path
        d="M8.662 16.353a.893.893 0 0 1-.892-.892v-2.379h.595v2.379a.297.297 0 0 0 .594 0v-2.379h.595v2.379c0 .492-.4.892-.892.892z"
        fill="#ff6337" style="fill:#bfb63b" />
    <path
        d="M8.662 13.974a.893.893 0 0 1-.892-.892v-2.775a.893.893 0 0 1 1.784 0v2.775c0 .492-.4.892-.892.892zm0-3.964a.297.297 0 0 0-.297.297v2.775a.297.297 0 0 0 .594 0v-2.775a.297.297 0 0 0-.297-.297z"
        fill="#ffa754" />
    <path
        d="M12.23 16.353a.893.893 0 0 1-.892-.892v-2.379h.595v2.379a.297.297 0 0 0 .594 0v-2.379h.595v2.379c0 .492-.4.892-.892.892z"
        fill="#ff6337" style="fill:#bfb63b" />
    <path
        d="M12.23 13.974a.893.893 0 0 1-.892-.892v-2.775a.893.893 0 0 1 1.784 0v2.775c0 .492-.4.892-.892.892zm0-3.964a.297.297 0 0 0-.297.297v2.775a.297.297 0 0 0 .594 0v-2.775a.297.297 0 0 0-.297-.297z"
        fill="#ffa754" />
    <path d="M15.501 11.298v7.794l-.986.329a.297.297 0 0 0 .188.564l1.189-.396a.297.297 0 0 0 .203-.282v-8.009z"
        fill="#a45e43" style="fill:#ce9c88" />
    <path
        d="M18.474 11.298v7.794l.986.329a.297.297 0 0 1-.188.564l-1.189-.396a.297.297 0 0 1-.203-.282v-8.009zm-13.083 0v7.794l.986.329a.297.297 0 0 1-.188.564L5 19.589a.297.297 0 0 1-.203-.282v-8.009z"
        fill="#85453d" style="fill:#af6960" />
    <path d="M15.203 14.866v1.784a.595.595 0 0 0 1.19 0v-1.784z" fill="#ffe2a8" />
    <path d="M17.582 14.866v1.784a.595.595 0 0 0 1.19 0v-1.784z" fill="#ffcb63" />
    <path d="m17.582 1.784-.595 3.568c.985 0 1.784-.799 1.784-1.784V2.379z" fill="#85453d" style="fill:#af6960" />
    <path d="M17.582 3.568V1.784l-2.379.595v1.189c0 .985.799 1.784 1.784 1.784.328 0 .595-.799.595-1.784z"
        fill="#a45e43" style="fill:#ce9c88" />
    <path d="M18.771 2.379h-3.568L16.987.595z" fill="#ff6337" style="fill:#bfb63b" />
    <path d="M18.771 1.784v.595A1.784 1.784 0 0 1 16.987.595h-.595L16.987 0c.985 0 1.784.799 1.784 1.784z"
        fill="#eb1b00" />
    <path d="M16.987 0v.595c0 .985-.799 1.784-1.784 1.784v-.595c0-.985.799-1.784 1.784-1.784z" fill="#ff4128" />
    <path d="m16.987 6.541-.595 4.757.595 4.757h2.379v-1.189l-1.189-8.325z" fill="#ffe2a8" />
    <path d="M18.573 6.541h-.396v8.325h1.189V7.334a.793.793 0 0 0-.793-.793z" fill="#eb1b00" />
    <path d="m15.798 6.541-1.189 8.325v1.189h2.379V6.541z" fill="#fff0d3" style="fill:#c7a257" />
    <path d="M15.401 6.541a.793.793 0 0 0-.793.793v7.532h1.189V6.541z" fill="#ff4128" />
    <path d="m6.228 4.992-.622-1.964H3.905V7.73l1.189-1.189a1.189 1.189 0 0 0 1.133-1.549z" fill="#eb1b00" />
    <path
        d="M5.094 5.352c0-.125-.02-.246-.056-.36l-.622-1.964H2.204l-.622 1.964a1.188 1.188 0 0 0-.056.36c0 .657.532 1.189 1.189 1.189L3.904 7.73V6.541c.657 0 1.189-.532 1.189-1.189z"
        fill="#ff4128" />
    <path d="M3.905 1.784v3.568c.985 0 1.784-.799 1.784-1.784z" fill="#85453d" style="fill:#af6960" />
    <path d="M3.905 1.784 2.121 3.568c0 .985.799 1.784 1.784 1.784.328 0 .595-.799.595-1.784s-.266-1.784-.595-1.784z"
        fill="#a45e43" style="fill:#ce9c88" />
    <path d="M3.905 1.784c-.985 0-1.784.799-1.784 1.784.985 0 1.784-.799 1.784-1.784z" fill="#60312c"
        style="fill:#5b2a25" />
    <path d="M5.689 3.568c0-.985-.799-1.784-1.784-1.784 0 .985.799 1.784 1.784 1.784z" fill="#40211d" />
    <path d="m4.499 10.704.595 7.413h1.189v-5.629z" fill="#eb1b00" />
    <path d="M3.905 10.109H2.716v8.008h2.379v-6.819z" fill="#ff4128" />
    <path d="M5.689 10.109c.37.419.595.969.595 1.572v.807a2.379 2.379 0 0 1-2.379-2.379L2.716 8.92z" fill="#ff6337"
        style="fill:#bfb63b" />
    <path d="M2.716 7.334h2.973v2.775H2.716z" fill="#ffa754" />
    <path d="M1.526 7.334v11.179c-.657 0-1.189.532-1.189 1.189h.793c.985 0 1.982-.006 1.982-.991V7.334z"
        fill="#ff4128" />
    <path d="M2.716 7.334v10.783c0 .876-.71 1.586-1.586 1.586h1.189c.876 0 1.586-.71 1.586-1.586V7.334z"
        fill="#eb1b00" />
    <path d="M5.491 6.541H4.302l.793 1.734a2.983 2.983 0 0 0 1.189-.942.793.793 0 0 0-.793-.793z" fill="#ff4128" />
    <path d="M4.301 6.541H2.319a.793.793 0 0 0-.793.793 2.968 2.968 0 0 0 3.568.941v-.941a.793.793 0 0 0-.793-.793z"
        fill="#ff6337" style="fill:#bfb63b" />
    <path
        d="M16.624 4.335a.297.297 0 0 1-.095-.579.433.433 0 0 0 .215-.161.297.297 0 0 1 .486 0 .434.434 0 0 0 .215.161.297.297 0 0 1-.189.564 1.025 1.025 0 0 1-.269-.138 1.024 1.024 0 0 1-.269.138.298.298 0 0 1-.095.016z"
        fill="#40211d" />
</svg>