<svg viewBox="0 0 20 20" xmlns="http://www.w3.org/2000/svg" width="20" height="20">
    <path d="M4.727 9.408h10.547v2.93H4.727z" fill="#f9d9ba" />
    <path d="M10 9.408h5.273v2.93H10z" fill="#f2c2aa" />
    <path d="M2.383 11.752h15.234v2.93H2.383z" fill="#fff5e6" />
    <path d="M10 11.752h7.617v2.93H10z" fill="#f9d9ba" />
    <path d="M0 14.096v5.898h20v-5.898z" fill="#ff5959" />
    <path d="M10 14.096h10v5.898H10z" fill="#e63a57" />
    <path
        d="M2.383 16.439h1.172v1.172H2.383zm2.344 0h1.172v1.172H4.727zm2.343 0h1.172v1.172H7.07zm2.344 0h1.172v1.172H9.414z"
        fill="#fff5e6" />
    <path d="M11.758 16.439h1.172v1.172h-1.172zm2.344 0h1.172v1.172h-1.172zm2.343 0h1.172v1.172h-1.172z"
        fill="#f9d9ba" />
    <path
        d="m13.504 3.174-.387-.633-.832.82C11.57 2.025 10.516.639 10.457.58L10 .006 9.543.58C9.484.639 8.43 2.025 7.715 3.361l-.832-.82-.387.633a4.09 4.09 0 0 0-.598 2.133c0 2.262 1.84 4.102 4.102 4.102s4.102-1.84 4.102-4.102c0-.762-.211-1.5-.598-2.133z"
        fill="#ffbe40" />
    <path
        d="M10 9.408V.006l.457.574c.059.059 1.113 1.445 1.828 2.781l.832-.82.387.633a4.09 4.09 0 0 1 .598 2.133A4.106 4.106 0 0 1 10 9.409z"
        fill="#ff9f40" />
    <path d="M10 16.439h.586v1.172H10z" fill="#f9d9ba" />
</svg>