<svg viewBox="0 0 20 20" xmlns="http://www.w3.org/2000/svg" width="20" height="20">
    <path
        d="M10.648 9.454s1.856 1.164 1.34 4.858c-.64 4.582 1.849 5.404 1.849 5.404s3.243-.28 4.364-4.054c0 0-2.656.537-3.776-2.756-1.145-3.365-3.123-3.855-3.123-3.855z"
        fill="#ffee92" />
    <path
        d="M14.425 12.907c-1.145-3.365-3.123-3.855-3.123-3.855l-.513.316c.679.431 1.738 1.408 2.463 3.539 1.12 3.292 3.776 2.756 3.776 2.756-.764 2.574-2.515 3.522-3.552 3.865.214.14.361.188.361.188s3.243-.28 4.364-4.054c0 0-2.656.537-3.776-2.756z"
        fill="#ffe666" />
    <path
        d="M16.886 15.568c-.399 1.062-1.445 2.744-4.126 3.284.52.68 1.077.865 1.077.865s3.243-.28 4.364-4.054c0 0-.582.117-1.315-.095z"
        fill="#ffc338" />
    <path
        d="M9.21 9.454s-1.856 1.164-1.34 4.858c.64 4.582-1.849 5.404-1.849 5.404s-3.243-.28-4.364-4.054c0 0 2.656.537 3.776-2.756 1.145-3.365 3.123-3.855 3.123-3.855z"
        fill="#ff3d71" />
    <path
        d="M2.973 15.568c.399 1.062 1.445 2.744 4.126 3.284-.52.68-1.077.865-1.077.865s-3.243-.28-4.364-4.054c0 0 .582.117 1.315-.095z"
        fill="#ffc338" />
    <path d="M.293.284c1.4 2.369 5.278 6.246 9.71 7.857v1.692S4.311 10.432.293 6.4V.284z" fill="#ff3d71" />
    <path d="M19.726.284c-1.399 2.369-5.277 6.246-9.71 7.857v1.692s5.692.599 9.71-3.433z" fill="#ffee92" />
    <path
        d="M11.758 9.083a.293.293 0 0 1-.024-.586c.025-.002 2.344-.224 4.97-2.361a.293.293 0 0 1 .37.455c-2.777 2.26-5.19 2.482-5.292 2.49a.318.318 0 0 1-.024.001z"
        fill="#ffc338" />
    <path fill="#ff3d71"
        d="M-50.058 116.23a2.044 1.943-20.45 0 1-1.236 2.535 2.044 1.943-20.45 0 1-2.594-1.107 2.044 1.943-20.45 0 1 3.83-1.428z" />
    <path
        d="M6.652 7.997a7.982 7.982 0 0 1-1.099-.401.293.293 0 1 0-.239.535 8.83 8.83 0 0 0 1.178.43.294.294 0 0 0 .08.011.293.293 0 0 0 .079-.576zM4.06 6.765C1.933 5.345.547 3.399.533 3.379a.293.293 0 0 0-.409-.071.293.293 0 0 0-.071.409C.112 3.8 1.512 5.77 3.734 7.253a.293.293 0 0 0 .407-.081.293.293 0 0 0-.081-.407z"
        fill="#e01d61" />
    <path
        d="M7.133 10.415c.305.071.634.209.899.468a1.263 1.263 0 0 0 1.747 0c.55-.521 1.033-1.394.501-2.507-.378-.791-1.535-1.273-2.411-1.098-.682.136-1.387.726-1.649 1.488-.244.709.184 1.48.912 1.65z"
        fill="#ffee92" />
    <path
        d="M10.281 8.376c-.378-.791-1.535-1.273-2.411-1.098a1.759 1.759 0 0 0-.181.047c.607.16 1.175.541 1.419 1.051.531 1.113.048 1.986-.501 2.507a1.278 1.278 0 0 1-.291.207 1.273 1.273 0 0 0 1.464-.207c.55-.521 1.033-1.394.501-2.507z"
        fill="#ffe666" />
    <path
        d="M18.201 5.592a.293.293 0 0 1-.197-.511c.011-.01 1.096-.992 1.464-1.507a.293.293 0 0 1 .477.341c-.405.567-1.502 1.559-1.548 1.601a.292.292 0 0 1-.196.076z"
        fill="#ffc338" />
</svg>