<svg viewBox="0 0 20 20" xmlns="http://www.w3.org/2000/svg" width="20" height="20">
    <path
        d="M16.017 13.286a2.096 2.096 0 0 0-.876-.458l-10.726.686a.905.905 0 0 0-.392.49.909.909 0 0 0 .584 1.151l3.437 1.316v-.005l1.314.558a5.282 5.282 0 0 0 2.619.39l4.181-.443 1.342.498v-3.915z"
        fill="#ffcaa6" />
    <path
        d="M.391 9.814h3.126c.64 0 1.277-.081 1.896-.241l.479-.124a3.27 3.27 0 0 1 2.671.471l2.221 1.526a.851.851 0 0 1-.175 1.496.852.852 0 0 1-.712-.044l-2.209-1.191L9.9 12.9a.843.843 0 0 0 .705.044l3.483-1.35a.831.831 0 0 1 .61 1.549l-3.488 1.395a2.661 2.661 0 0 1-1.721.088l-3.766-1.078a2.662 2.662 0 0 0-.732-.103h-4.6z"
        fill="#ffd1c8" />
    <path
        d="M16.351 4.555c-.232-.713-1.345-.99-2.491-.623-.004-1.203-.612-2.177-1.362-2.177s-1.358.973-1.362 2.177c-1.146-.368-2.259-.09-2.491.623-.232.713.506 1.592 1.649 1.968-.704.976-.784 2.121-.177 2.562s1.67.011 2.381-.96c.711.971 1.775 1.401 2.381.96s.526-1.585-.177-2.562c1.143-.376 1.881-1.255 1.649-1.968z"
        fill="#ffcf5c" />
    <path fill="#ff7d99" d="M13.437 5.807a.939.939 0 0 1-.939.939.939.939 0 0 1-.939-.939.939.939 0 0 1 1.878 0z" />
    <path d="M17.5 12.828h2.109v5.416H17.5z" fill="#6ae6a3" />
    <path d="M2.734 14.568a.781.781 0 0 1-.781-.781V9.482a.781.781 0 0 1 1.562 0v4.305c0 .431-.35.781-.781.781z"
        fill="#ffcf5c" />
    <path d="M1.172 14.568a.781.781 0 0 1-.781-.781V9.482a.781.781 0 0 1 1.562 0v4.305c0 .431-.35.781-.781.781z"
        fill="#ff7d99" />
    <path
        d="M19.609 12.438H17.5a.39.39 0 0 0-.391.391v.258l-.921-.166a2.499 2.499 0 0 0-.593-.351 1.222 1.222 0 0 0-.151-.817 1.219 1.219 0 0 0-1.498-.523l-2.404.932a1.239 1.239 0 0 0-.538-1.037l-.772-.531a.39.39 0 1 0-.442.644l.772.531a.456.456 0 0 1 .197.433.455.455 0 0 1-.291.377.461.461 0 0 1-.385-.024l-2.209-1.192a.39.39 0 1 0-.371.687l2.209 1.191.003.002a1.232 1.232 0 0 0 .924.1l3.591-1.386a.44.44 0 0 1 .541.189.436.436 0 0 1 .037.366.436.436 0 0 1-.254.267l-3.488 1.395a2.28 2.28 0 0 1-1.468.075l-3.766-1.078a3.052 3.052 0 0 0-.84-.118H3.906v-2.86A7.984 7.984 0 0 0 5.51 9.95l.479-.124a2.875 2.875 0 0 1 .888-.087c.215.012.4-.152.413-.367a.392.392 0 0 0-.367-.413 3.656 3.656 0 0 0-1.129.111l-.479.124a7.183 7.183 0 0 1-1.41.217 1.173 1.173 0 0 0-1.951-.803 1.174 1.174 0 0 0-1.953.873v4.305a1.174 1.174 0 0 0 1.953.873 1.167 1.167 0 0 0 1.661-.1 1.307 1.307 0 0 0 .113.319c.156.308.422.537.75.645l4.73 1.86a5.686 5.686 0 0 0 2.813.419l4.09-.433.998.372v.503a.39.39 0 0 0 .391.391h2.109a.39.39 0 0 0 .391-.391v-5.416a.39.39 0 0 0-.391-.391zM6.397 15.335l-.268-.116a.514.514 0 0 1-.269-.684.518.518 0 0 1 .619-.287l.259.062a1.419 1.419 0 0 0-.252.426 1.436 1.436 0 0 0-.089.599zm-5.225-1.157a.392.392 0 0 1-.391-.391V9.482a.392.392 0 0 1 .782 0v4.305a.392.392 0 0 1-.391.391zm1.953-.391a.392.392 0 0 1-.782 0V9.482a.392.392 0 0 1 .782 0zm1.602.997a.516.516 0 0 1-.333-.655.518.518 0 0 1 .223-.279c.007-.004.374-.013.374-.013.129 0 .257.011.384.033a1.289 1.289 0 0 0-.23.352c-.096.219-.13.454-.101.684l-.318-.121zm11.568 1.822a.391.391 0 0 0-.177-.022l-4.181.443a4.903 4.903 0 0 1-2.425-.361l-1.933-.82-.003-.002a.654.654 0 0 1-.358-.834.658.658 0 0 1 .729-.415l1.435.406a3.048 3.048 0 0 0 .838.117 3.07 3.07 0 0 0 1.135-.217l3.488-1.395a1.223 1.223 0 0 0 .381-.242 1.713 1.713 0 0 1 .535.317.391.391 0 0 0 .188.091l1.162.208v3.028zm2.924 1.248h-1.328v-4.635h1.328z"
        style="fill:snow" />
    <path
        d="M14.884 14.846a3.226 3.226 0 0 0-2.158.325.39.39 0 0 0-.158.529.391.391 0 0 0 .529.158 2.434 2.434 0 0 1 1.633-.246.391.391 0 0 0 .154-.766zm-2.386-7.709c.733 0 1.33-.597 1.33-1.33 0-.733-.597-1.33-1.33-1.33-.733 0-1.33.597-1.33 1.33 0 .733.597 1.33 1.33 1.33zm0-1.878a.549.549 0 1 1-.002 1.098.549.549 0 0 1 .002-1.098z"
        style="fill:snow" />
    <path
        d="M9.715 6.712c-.577 1.059-.526 2.182.172 2.689.698.507 1.782.209 2.611-.667.555.587 1.225.914 1.816.914.292 0 .564-.08.795-.247.698-.507.749-1.63.172-2.689 1.089-.518 1.708-1.456 1.441-2.277-.267-.821-1.319-1.216-2.504-.995-.156-1.196-.857-2.074-1.72-2.074s-1.564.878-1.72 2.074c-1.186-.221-2.238.174-2.504.995-.267.821.352 1.759 1.441 2.277zm-.698-2.036c.159-.489 1.094-.662 2-.371a.391.391 0 0 0 .51-.371c.003-.952.457-1.788.971-1.788s.968.835.971 1.787a.391.391 0 0 0 .51.371c.907-.291 1.841-.117 2 .372s-.495 1.179-1.4 1.476a.391.391 0 0 0-.195.599c.557.772.681 1.715.265 2.017-.416.302-1.274-.107-1.837-.875a.391.391 0 0 0-.63 0c-.563.768-1.421 1.177-1.837.875-.416-.302-.292-1.245.265-2.017a.391.391 0 0 0-.195-.599c-.904-.298-1.559-.987-1.4-1.476zM8.953 9.92a.391.391 0 0 1-.39.39.391.391 0 0 1-.391-.39.391.391 0 0 1 .781 0z"
        style="fill:snow" />
</svg>