<svg viewBox="0 0 20 20" xmlns="http://www.w3.org/2000/svg" width="20" height="20">
    <path
        d="M6.214 6.865h.759v-.328c0-.134.046-.265.129-.37l.532-.672a1.384 1.384 0 0 1 2.014-.171l.314.282.314-.282a1.383 1.383 0 0 1 .926-.355c.427 0 .823.192 1.088.526l.532.672a.598.598 0 0 1 .129.37v.328h.759a1.252 1.252 0 0 1 .644.178V5.901a4.391 4.391 0 0 0-8.782 0v1.142a1.251 1.251 0 0 1 .644-.178z"
        fill="#554e56" />
    <path
        d="m11.074 1.651.092.787a.11.11 0 0 1-.056.11A4.38 4.38 0 0 1 12.665 5.9v.071l.155.196a.598.598 0 0 1 .129.37v.328h.759a1.252 1.252 0 0 1 .644.178V5.901a4.393 4.393 0 0 0-3.278-4.249z"
        fill="#433f43" />
    <path d="M9.668 2.361v2.223c.087-.063.187-.099.293-.099s.206.036.293.099V2.431l-.569-.067-.017-.003z"
        fill="#ffd15b" />
    <path
        d="m4.966 13.597 4.995 4.995 4.995-4.995v-.004l-2.23-.693-.039.381c0 1.134-.641 1.505-1.452 1.974-.406.235-.866.501-1.274.9-.448-.44-.923-.714-1.343-.957-.772-.446-1.383-.799-1.383-1.917l-.039-.381-2.23.693v.004z"
        fill="#fff3de" />
    <path
        d="M11.278 12.289v-.765a2.97 2.97 0 0 1-2.634 0v.765a.219.219 0 0 1-.154.21l-1.294.402v.381c0 1.771 1.492 1.657 2.765 2.93 1.185-1.185 2.765-1.159 2.765-2.93v-.381l-1.294-.402a.219.219 0 0 1-.154-.21z"
        fill="#f89580" />
    <path
        d="M11.432 12.498a.219.219 0 0 1-.154-.21v-.765a2.968 2.968 0 0 1-1.26.306v.55a.65.65 0 0 0 .457.62l.991.308v1.207c0 .28-.039.514-.11.716.753-.438 1.371-.842 1.371-1.95v-.381z"
        fill="#ec806b" />
    <path d="M6.973 8.842V6.824h-.759a1.3 1.3 0 1 0 0 2.6h.816a2.987 2.987 0 0 1-.057-.582z" fill="#f89580" />
    <path d="M13.708 6.825h-.759v2.018c0 .199-.02.394-.057.582h.816a1.3 1.3 0 1 0 0-2.6z" fill="#ec806b" />
    <path fill="#ffe177" d="M7.097 9.455a.849.849 0 0 1-.848.849.849.849 0 0 1-.849-.849.849.849 0 0 1 1.697 0z" />
    <path
        d="M6.249 8.607a.844.844 0 0 0-.366.084.848.848 0 0 1 .468.915.293.293 0 0 1 .191.274v.372a.85.85 0 0 0-.292-1.646z"
        fill="#ffd15b" />
    <path d="M6.249 10.95c.106 0 .206.028.293.076V9.88a.293.293 0 0 0-.586 0v1.146a.601.601 0 0 1 .293-.076z"
        fill="#ffc344" />
    <path fill="#ffe177" d="M14.522 9.455a.849.849 0 0 1-.849.849.849.849 0 0 1-.848-.849.849.849 0 0 1 1.697 0z" />
    <path
        d="M13.673 8.607a.848.848 0 0 0-.366.084.848.848 0 0 1 .468.915.293.293 0 0 1 .191.274v.372a.85.85 0 0 0-.292-1.646z"
        fill="#ffd15b" />
    <path d="M13.673 10.95c.106 0 .206.028.293.076V9.88a.293.293 0 0 0-.586 0v1.146a.601.601 0 0 1 .293-.076z"
        fill="#ffc344" />
    <path
        d="m10.248 5.294-.287.258-.287-.258a1.426 1.426 0 0 0-2.072.176l-.532.672a.636.636 0 0 0-.137.395v2.305a3.028 3.028 0 0 0 6.056 0V6.537a.636.636 0 0 0-.137-.395l-.532-.672a1.427 1.427 0 0 0-2.072-.176z"
        fill="#ffb09e" />
    <path
        d="m12.852 6.142-.532-.672a1.427 1.427 0 0 0-1.748-.395 1.42 1.42 0 0 1 .489.395l.532.672a.636.636 0 0 1 .137.395v2.305a3.028 3.028 0 0 1-2.399 2.962 3.038 3.038 0 0 0 .629.066 3.028 3.028 0 0 0 3.028-3.028V6.537a.636.636 0 0 0-.137-.395z"
        fill="#f89580" />
    <path
        d="M8.489 7.873a.293.293 0 0 1-.293-.293v-.574a.293.293 0 0 1 .586 0v.574a.293.293 0 0 1-.293.293zm2.944 0a.293.293 0 0 1-.293-.293v-.574a.293.293 0 0 1 .586 0v.574a.293.293 0 0 1-.293.293zM9.961 9.35a.292.292 0 0 1-.181-.063l-.535-.421a.293.293 0 0 1-.033-.43l.535-.574a.293.293 0 1 1 .428.4l-.318.34.284.224a.293.293 0 0 1-.181.523zm0 1.403c-.463 0-.925-.176-1.278-.528a.293.293 0 0 1 0-.414.293.293 0 0 1 .414 0 1.223 1.223 0 0 0 1.727 0 .293.293 0 0 1 .414 0 .293.293 0 0 1 0 .414 1.802 1.802 0 0 1-1.278.528z"
        fill="#c5715a" />
    <path
        d="M9.961 14.727a2.05 2.05 0 0 1-2.049-2.048v-.219a.293.293 0 0 1 .586 0v.219c0 .806.656 1.463 1.463 1.463s1.463-.656 1.463-1.463v-.219a.293.293 0 0 1 .586 0v.219a2.05 2.05 0 0 1-2.048 2.048z"
        fill="#ffc344" />
    <path d="m15.284 13.695-.367-.114L8.498 20h7.925c.333 0 .604-.27.604-.604V16.06a2.477 2.477 0 0 0-1.743-2.366z"
        fill="#fe9738" />
    <path
        d="m15.284 13.695-.367-.114-.359.359a2.478 2.478 0 0 1 1.196 2.121v3.336c0 .333-.27.604-.604.604h1.272c.333 0 .604-.27.604-.604v-3.336a2.477 2.477 0 0 0-1.743-2.366z"
        fill="#fe860a" />
    <path d="m9.989 18.565-4.984-4.984-.367.114a2.479 2.479 0 0 0-1.743 2.366v3.336c0 .333.27.604.604.604h5.055z"
        fill="#ffd15b" />
    <path d="m9.989 18.565-4.984-4.984-.367.114a2.476 2.476 0 0 0-.54.242l5.26 5.26z" fill="#ffc344" />
    <path d="m15.284 13.695-.367-.114L8.498 20h3.336l4.969-4.969a2.476 2.476 0 0 0-1.518-1.336z" fill="#fe7701" />
    <path
        d="m15.284 13.695-.367-.114-.351.351a2.481 2.481 0 0 1 .84.824.388.388 0 0 1-.058.479L10.584 20h1.249l4.969-4.969a2.476 2.476 0 0 0-1.518-1.336z"
        fill="#f46700" />
    <path
        d="m15.712 12.011 1.361-.16a.741.741 0 0 0 .437-1.259l-.504-.504a.741.741 0 0 0-1.259.437l-.16 1.361a.112.112 0 0 0 .124.124z"
        fill="#fe76a8" />
    <path
        d="m17.511 10.592-.504-.504a.739.739 0 0 0-.166-.124l.065.065a.741.741 0 0 1-.437 1.259l-.822.096-.059.502a.112.112 0 0 0 .124.124l1.361-.16a.741.741 0 0 0 .437-1.259z"
        fill="#fe5694" />
    <path
        d="m11.166 2.438-.16-1.361A.741.741 0 0 0 9.747.64l-.504.504a.741.741 0 0 0 .437 1.259l1.361.16a.112.112 0 0 0 .124-.124z"
        fill="#fea3c6" />
    <path
        d="m11.166 2.438-.16-1.361A.741.741 0 0 0 9.747.64l-.144.144c.028.004.055.009.083.015a.741.741 0 0 1 .556.632l.123 1.052.676.079a.112.112 0 0 0 .124-.124z"
        fill="#fe93bb" />
    <path
        d="m4.386 2.14 1.361-.16A.741.741 0 0 0 6.184.721L5.681.217a.741.741 0 0 0-1.259.437l-.16 1.361a.112.112 0 0 0 .124.124z"
        fill="#fe76a8" />
    <path
        d="M6.185.721 5.82.356a.74.74 0 0 1 .013.405.741.741 0 0 1-.632.556l-.869.102-.07.597a.112.112 0 0 0 .124.124l1.361-.16A.741.741 0 0 0 6.184.721z"
        fill="#fe5694" />
    <path
        d="m17.804 14.588-1.361.16a.741.741 0 0 0-.437 1.259l.504.504a.741.741 0 0 0 1.259-.437l.16-1.361a.112.112 0 0 0-.124-.124z"
        fill="#fea3c6" />
    <path
        d="m17.804 14.588-.693.081-.14 1.195a.741.741 0 0 1-.494.614l.033.033a.741.741 0 0 0 1.259-.437l.16-1.361a.112.112 0 0 0-.124-.124z"
        fill="#fe93bb" />
    <path
        d="m3.92 5.943-1.361-.16a.741.741 0 0 1-.437-1.259l.504-.504a.741.741 0 0 1 1.259.437l.16 1.361a.112.112 0 0 1-.124.124z"
        fill="#fea3c6" />
    <path
        d="m4.045 5.818-.16-1.361a.741.741 0 0 0-1.259-.437l-.149.149a.741.741 0 0 1 .603.642l.123 1.047.719.084a.112.112 0 0 0 .124-.124z"
        fill="#fe93bb" />
    <path fill="#fe76a8" d="M10.605 5.272a.644.825 0 0 1-.644.825.644.825 0 0 1-.644-.825.644.825 0 0 1 1.288 0z" />
    <path
        d="M9.961 4.447a.526.526 0 0 0-.273.079c.219.132.37.416.37.746s-.152.614-.37.746c.083.05.176.079.273.079.356 0 .644-.369.644-.825s-.288-.825-.644-.825z"
        fill="#fe5694" />
    <path
        d="M19.416 5.624a.85.85 0 0 0-.367-.701.852.852 0 0 0-.997-.949.853.853 0 0 0-1.377.034.852.852 0 0 0-.949.997.853.853 0 0 0 .034 1.377.852.852 0 0 0 .997.949.853.853 0 0 0 1.377-.034.852.852 0 0 0 .949-.997.853.853 0 0 0 .333-.676z"
        fill="#fe76a8" />
    <path
        d="M19.416 5.624a.85.85 0 0 0-.367-.701.852.852 0 0 0-.997-.949.853.853 0 0 0-.676-.333.848.848 0 0 0-.542.195 1.952 1.952 0 0 1 .075 3.647.848.848 0 0 0 .525.181.85.85 0 0 0 .701-.367.852.852 0 0 0 .949-.997.853.853 0 0 0 .333-.676z"
        fill="#fe5694" />
    <path fill="#fff" d="M18.13 5.653a.726.726 0 0 1-.726.725.726.726 0 0 1-.725-.725.726.726 0 0 1 1.451 0z" />
    <path d="M17.404 4.927c-.1 0-.195.02-.281.057a.727.727 0 0 1 0 1.338.723.723 0 0 0 .281.057.726.726 0 1 0 0-1.452z"
        fill="#f3f0f3" />
    <path
        d="M4.608 15.121a.85.85 0 0 0-.367-.701.852.852 0 0 0-.997-.949.853.853 0 0 0-1.377.034.852.852 0 0 0-.949.997.853.853 0 0 0 .034 1.377.852.852 0 0 0 .997.949.853.853 0 0 0 1.377-.034.852.852 0 0 0 .949-.997.853.853 0 0 0 .333-.676z"
        fill="#fe76a8" />
    <path
        d="M4.608 15.121a.85.85 0 0 0-.367-.701.852.852 0 0 0-.997-.949.853.853 0 0 0-.676-.333.848.848 0 0 0-.542.195 1.952 1.952 0 0 1 .075 3.647.848.848 0 0 0 .525.181.85.85 0 0 0 .701-.367.852.852 0 0 0 .949-.997.853.853 0 0 0 .333-.676z"
        fill="#fe5694" />
    <path fill="#fff" d="M3.321 15.15a.726.726 0 0 1-.725.725.726.726 0 0 1-.726-.725.726.726 0 0 1 1.451 0z" />
    <path d="M2.596 14.424c-.1 0-.195.02-.281.057a.727.727 0 0 1 0 1.338.723.723 0 0 0 .281.057.726.726 0 1 0 0-1.452z"
        fill="#f3f0f3" />
    <path
        d="M2.269 10.163c.315.315.767.418 1.201.318a.143.143 0 0 0 .107-.107c.1-.434-.003-.886-.318-1.201s-.767-.418-1.201-.318a.143.143 0 0 0-.107.107c-.1.434.003.886.318 1.201z"
        fill="#8bc727" />
    <path
        d="M3.259 9.173c-.315-.315-.767-.418-1.201-.318a.143.143 0 0 0-.107.107 1.427 1.427 0 0 0-.036.307c.332-.003.653.114.893.354s.357.562.354.893a1.424 1.424 0 0 0 .307-.036.143.143 0 0 0 .107-.107c.1-.434-.003-.886-.318-1.201z"
        fill="#81b823" />
    <path
        d="M14.974 1.059c-.315.315-.418.767-.318 1.201a.143.143 0 0 0 .107.107c.434.1.886-.003 1.201-.318s.418-.767.318-1.201a.143.143 0 0 0-.107-.107c-.434-.1-.886.003-1.201.318z"
        fill="#8bc727" />
    <path
        d="M16.282.848a.143.143 0 0 0-.107-.107 1.422 1.422 0 0 0-.34-.036c-.005.32-.122.628-.354.861s-.541.349-.861.354a1.42 1.42 0 0 0 .036.34.143.143 0 0 0 .107.107c.434.1.886-.003 1.201-.318.315-.314.418-.767.318-1.201z"
        fill="#81b823" />
    <path
        d="M5.196 17.357c-.315.315-.418.767-.318 1.201a.143.143 0 0 0 .107.107c.434.1.886-.003 1.201-.318s.418-.767.318-1.201a.143.143 0 0 0-.107-.107c-.434-.1-.886.003-1.201.318z"
        fill="#8bc727" />
    <path
        d="M6.504 17.146a.143.143 0 0 0-.107-.107 1.425 1.425 0 0 0-.304-.036c.004.333-.113.655-.354.896a1.233 1.233 0 0 1-.896.354c.001.101.013.203.036.304a.143.143 0 0 0 .107.107c.434.1.886-.003 1.201-.318s.418-.767.318-1.201z"
        fill="#81b823" />
    <path
        d="M14.273 17.629c-.315-.315-.767-.418-1.201-.318a.143.143 0 0 0-.107.107c-.1.434.003.886.318 1.201s.767.418 1.201.318a.143.143 0 0 0 .107-.107c.1-.434-.003-.886-.318-1.201z"
        fill="#8bc727" />
    <path
        d="M14.273 17.629c-.315-.315-.767-.418-1.201-.318a.143.143 0 0 0-.107.107 1.427 1.427 0 0 0-.036.299c.335-.005.659.111.902.354.242.242.359.567.354.902a1.425 1.425 0 0 0 .299-.036.143.143 0 0 0 .107-.107c.1-.434-.003-.886-.318-1.201z"
        fill="#81b823" />
    <path fill="#e30256" d="M10.254 7.082a.293.293 0 0 1-.293.293.293.293 0 0 1-.293-.293.293.293 0 0 1 .586 0z" />
    <path fill="#ffe177" d="M14.318 11.555a.645.645 0 0 1-.645.645.645.645 0 0 1-.644-.645.645.645 0 0 1 1.289 0z" />
    <path d="M13.673 10.911a.64.64 0 0 0-.206.034.644.644 0 0 1 0 1.22.643.643 0 0 0 .206.034.645.645 0 0 0 0-1.29z"
        fill="#ffd15b" />
    <path fill="#ffe177" d="M6.893 11.555a.645.645 0 0 1-.644.645.645.645 0 0 1-.645-.645.645.645 0 0 1 1.289 0z" />
    <path d="M6.249 10.911a.64.64 0 0 0-.206.034.644.644 0 0 1 0 1.22.643.643 0 0 0 .206.034.645.645 0 0 0 0-1.29z"
        fill="#ffd15b" />
</svg>