<svg viewBox="0 0 20 20" xmlns="http://www.w3.org/2000/svg" width="20" height="20">
    <path d="m12.93 4.688-1.277 7.179 1.95.877a8.456 8.456 0 0 0 2.842-6.318v-.567z" fill="#ff7f40" />
    <path d="M16.445 2.93c0-.997-.502-1.877-1.265-2.406l-3.818 1.474-1.518 3.861h6.601z" fill="#ff9f40" />
    <path d="m7.104 5.796.511 2.993 3.39 1.172 1.944-1.172L14.452.488z" fill="#ffbe40" />
    <path d="M12.949 8.789H7.615l-1.679 4.482L5.898 20h8.203v-3.951a23.418 23.418 0 0 0-1.152-7.26z" fill="#ffbe40" />
    <path d="M14.102 16.049a23.417 23.417 0 0 0-1.153-7.26H10V20h4.102z" fill="#ff9f40" />
    <path
        d="M8.092 0H6.484a2.933 2.933 0 0 0-2.93 2.93v2.93h2.082l2.855-1.87.646-2.02C8.426 1.313 8.157.179 8.092 0zM7.035 8.669a14.625 14.625 0 0 0-2.308 7.9v1.048H10V4.102z"
        fill="#ffdf40" />
    <path d="M13.516 0h-2.602L10 1.01l-.867.959-3.492 3.89 1.394 2.812L10 5.707l5.18-5.18A2.898 2.898 0 0 0 13.516 0z"
        fill="#a0e65c" />
    <path d="M13.516 0h-2.602L10 1.01v4.697l5.18-5.18A2.898 2.898 0 0 0 13.516 0z" fill="#79cc52" />
</svg>