<svg viewBox="0 0 20 20" xmlns="http://www.w3.org/2000/svg" width="20" height="20">
    <path d="m13.906 2.344-1.368 4.727 1.224 1.172 1.217-1.172 1.368-4.727-1.29-1.172z" fill="#36464d"
        style="fill:#e60566" />
    <path d="M11.17 11.758h2.442L14.98 7.07h-2.442zM17.031 0H14.59l-.684 2.344h2.441z" fill="#ff9f40" />
    <path d="m6.094 2.344 1.368 4.727-1.224 1.172-1.217-1.172-1.368-4.727 1.29-1.172z" fill="#485c66"
        style="fill:#ce1c8d" />
    <path d="M8.83 11.758H6.388L5.02 7.07h2.442zM2.969 0H5.41l.684 2.344H3.653zM7.07 15.349h1.172v3.479H7.07z"
        fill="#ffbe40" />
    <path d="M11.758 15.349h1.172v3.479h-1.172z" fill="#ff9f40" />
    <path d="M10 15.859h-.586V20h1.172v-4.141z" fill="#ffbe40" />
    <path d="M10 15.859h.586V20H10z" fill="#ff9f40" />
    <path
        d="M12.344 9.414A2.92 2.92 0 0 0 10 10.604a2.918 2.918 0 0 0-2.344-1.19 2.933 2.933 0 0 0-2.93 2.93c0 2.185 2.464 4.102 5.273 4.102s5.273-1.917 5.273-4.102a2.933 2.933 0 0 0-2.93-2.93z"
        fill="#ffdf40" />
    <path
        d="M15.273 12.344a2.933 2.933 0 0 0-2.93-2.93 2.92 2.92 0 0 0-2.344 1.19v5.841c2.81 0 5.273-1.917 5.273-4.102z"
        fill="#ffbe40" />
    <path d="M11.758 11.758h1.172v1.172h-1.172z" fill="#ff9f40" />
    <path d="M7.07 11.758h1.172v1.172H7.07zM10 13.516h-.586v1.172h1.172v-1.172z" fill="#ffbe40" />
    <path d="M10 13.516h.586v1.172H10z" fill="#ff9f40" />
</svg>