<svg viewBox="0 0 20 20" xmlns="http://www.w3.org/2000/svg" width="20" height="20">
    <path d="M14.102 19.414h4.688v-8.828h-.586a4.102 4.102 0 0 0-4.102 4.102z" fill="#f2c2aa" />
    <path d="M11.758 9.513h1.172v2.245h-1.172z" fill="#ffbe40" />
    <path d="M7.07 9.513h1.172v2.245H7.07zM10 10h-.586v2.93h1.172V10z" fill="#ffdf40" />
    <path d="M10 10h.586v2.93H10z" fill="#ffbe40" />
    <path d="M12.987 6.144H7.013l-.664 3.308c1.076.742 2.34 1.134 3.651 1.134s2.575-.392 3.651-1.134z" fill="#ff5959" />
    <path d="M12.987 6.144H10v4.442a6.406 6.406 0 0 0 3.651-1.134z" fill="#e63a57" />
    <path d="M11.68 3.026H8.32l-.673 4.475c.691.485 1.505.741 2.353.741s1.662-.256 2.353-.742z" fill="#e63a57" />
    <path d="M11.68 3.026H10v5.216c.848 0 1.662-.256 2.353-.742z" fill="#cc1f58" />
    <path d="M5.898 19.414H1.211v-8.828h.586a4.102 4.102 0 0 1 4.102 4.102z" fill="#f9d9ba" />
    <path d="M1.797 11.758h-.586V2.383h8.203v1.758a7.617 7.617 0 0 1-7.617 7.617z" fill="#fff5e6" />
    <path d="M18.203 11.758h.586V2.383h-8.203v1.758a7.617 7.617 0 0 0 7.617 7.617z" fill="#f9d9ba" />
    <path d="M10 18.828H0V20h20v-1.172z" fill="#485c66" />
    <path d="M10 18.828h10V20H10z" fill="#36464d" />
    <path
        d="M12.344 2.031c0-.647-.525-1.172-1.172-1.172-.024 0-.044.012-.068.014C10.957.394 10.527 0 10 0s-.957.394-1.104.873C8.872.872 8.852.859 8.828.859c-.647 0-1.172.525-1.172 1.172 0 .416.229.764.556.972-.054.135-.088.28-.088.434 0 .647.525 1.172 1.172 1.172.269 0 .505-.106.703-.259.198.152.434.259.703.259.647 0 1.172-.525 1.172-1.172 0-.154-.034-.299-.088-.434a1.15 1.15 0 0 0 .558-.972z"
        fill="#ffdf40" />
    <path
        d="M11.875 3.437c0-.154-.034-.299-.088-.434.327-.207.557-.556.557-.972 0-.647-.525-1.172-1.172-1.172-.024 0-.044.012-.068.014C10.957.394 10.527 0 10 0v4.351c.198.152.434.259.703.259.647 0 1.172-.525 1.172-1.172z"
        fill="#ffbe40" />
    <path
        d="M4.727 2.031c0-.647-.525-1.172-1.172-1.172-.024 0-.044.012-.068.014C3.339.394 2.91 0 2.383 0s-.957.394-1.104.873C1.255.872 1.235.859 1.211.859.564.859 0 1.384 0 2.031c0 .416.268.764.595.972-.054.135-.127.28-.127.434 0 .647.564 1.172 1.211 1.172.269 0 .505-.106.703-.259.198.152.434.259.703.259.647 0 1.172-.525 1.172-1.172 0-.154-.034-.299-.088-.434a1.15 1.15 0 0 0 .558-.972z"
        fill="#ffdf40" />
    <path
        d="M20 2.031c0-.647-.564-1.172-1.211-1.172-.024 0-.044.012-.068.014C18.574.394 18.145 0 17.617 0s-.957.394-1.104.873c-.024-.001-.044-.014-.068-.014-.647 0-1.172.525-1.172 1.172 0 .416.229.764.556.972-.054.135-.088.28-.088.434 0 .647.525 1.172 1.172 1.172.269 0 .505-.106.703-.259.198.152.434.259.703.259.647 0 1.172-.525 1.172-1.172 0-.154-.034-.299-.088-.434.329-.207.597-.556.597-.972zm-3.555 9.141c0-.969.789-1.758 1.758-1.758S20 10.203 20 11.172s-.828 1.758-1.797 1.758-1.758-.789-1.758-1.758z"
        fill="#ffbe40" />
    <path
        d="M1.797 12.93C.828 12.93 0 12.141 0 11.172s.828-1.758 1.797-1.758 1.758.789 1.758 1.758-.789 1.758-1.758 1.758z"
        fill="#ffdf40" />
</svg>