<svg viewBox="0 0 20 20" xmlns="http://www.w3.org/2000/svg" width="20" height="20">
    <path
        d="M14.428 1.41 10 2.452 5.572 1.41C2.968 3.141 1.211 6.339 1.211 10c0 5.493 3.942 10 8.789 10s8.789-4.507 8.789-10c0-3.661-1.757-6.859-4.361-8.59z"
        fill="#a0e65c" />
    <path d="M18.789 10c0-3.661-1.757-6.859-4.361-8.59L10 2.452V20c4.847 0 8.789-4.507 8.789-10z" fill="#79cc52" />
    <path
        d="M12.93 4.141c-1.416 0-2.388.772-2.93 1.371-.541-.599-1.514-1.371-2.93-1.371-2.004 0-3.516 1.893-3.516 4.404 0 2.727 1.881 5.309 6.101 8.375l.344.251.344-.251c4.221-3.066 6.102-5.649 6.102-8.376 0-2.51-1.511-4.403-3.515-4.403z"
        fill="#ff5959" />
    <path
        d="M16.445 8.544c0-2.51-1.511-4.403-3.515-4.403-1.416 0-2.388.772-2.93 1.371V17.17l.344-.251c4.22-3.065 6.101-5.648 6.101-8.375z"
        fill="#e63a57" />
    <path d="M10 0C8.384 0 6.874.544 5.572 1.41L10 3.624l4.428-2.214C13.126.544 11.616 0 10 0z" fill="#ffdf40" />
    <path d="M10 0v3.624l4.428-2.214C13.126.544 11.616 0 10 0z" fill="#ffbe40" />
    <path d="M8.242 8.242h3.516v1.172H8.242zM7.07 10.586h5.859v1.172H7.07zm2.344 2.344h1.172v1.172H9.414z"
        fill="#fff5e6" />
    <path d="M10 12.93h.586v1.172H10zm0-4.688h1.758v1.172H10zm0 2.344h2.93v1.172H10z" fill="#f9d9ba" />
</svg>