<svg viewBox="0 0 20 20" xmlns="http://www.w3.org/2000/svg" width="20" height="20">
    <path d="M16.681 4.141a.879.879 0 0 0-.879.879v.878l.901.586.857-.586v-.879a.88.88 0 0 0-.879-.879z" fill="#a65342"
        style="fill:#dbb6ae" />
    <path d="m15.802 7.07.956 1.172.802-1.172V5.898h-1.758z" fill="#ffbe40" style="fill:#2d9f6e" />
    <path d="M13.751 1.797a.879.879 0 0 0-.879.879v2.051l.888.586.87-.586V2.676a.88.88 0 0 0-.879-.879z" fill="#a65342"
        style="fill:#dbb6ae" />
    <path d="m12.872 5.898.944 1.172.814-1.172V4.726h-1.758z" fill="#e63a57" style="fill:#01ad54" />
    <path d="M7.892 1.797a.879.879 0 0 0-.879.879v2.051l.877.586.88-.586V2.676a.88.88 0 0 0-.879-.879z" fill="#cc6e5c"
        style="fill:#e2c1bb" />
    <path d="m7.013 5.898.863 1.172.894-1.172V4.726H7.012zm4.688-1.172V2.383l-.854-1.172-.904 1.172v2.344l.904 1.172z"
        fill="#ffdf40" style="fill:#239560" />
    <path
        d="M15.802 7.07v1.172H14.63V5.898h-1.758v2.344H11.7V4.726H9.942v3.516H8.77V5.898H7.012v5.465l-1.276-1.275c-.862-.863-2.184-.825-2.778-.375l-.518.392 5.745 5.745v.595l1.172.638-1.172.534V20h3.516l.586-1.205.003-.006.583 1.211h3.516v-2.383l-1.172-.534 1.172-.638v-.586a3.976 3.976 0 0 0 1.172-2.829V7.07z"
        fill="#cc6e5c" style="fill:#e2c1bb" />
    <path
        d="M12.872 20h3.516v-2.383l-1.172-.534 1.172-.638v-.586a3.976 3.976 0 0 0 1.172-2.829V7.07h-1.758v1.172H14.63V5.898h-1.758v2.344h-.586v10.553l.003-.006z"
        fill="#a65342" style="fill:#dbb6ae" />
    <path
        d="M15.288 16.445a2.504 2.504 0 0 1-2.433-1.9l-.569.003-.57.003a2.461 2.461 0 0 1-2.402 1.894H8.185v1.172h1.13c.908 0 1.742-.339 2.386-.9V20h1.172v-3.3a3.653 3.653 0 0 0 2.415.917h1.1v-1.172z"
        fill="#ff5959" style="fill:#32a469" />
    <path
        d="M12.872 16.7a3.657 3.657 0 0 0 2.416.917h1.1v-1.172h-1.1a2.504 2.504 0 0 1-2.433-1.9l-.569.003V20h.586v-3.3z"
        fill="#e63a57" style="fill:#01ad54" />
    <path d="M11.7.879a.88.88 0 0 0-1.758 0v1.504H11.7z" fill="#cc6e5c" style="fill:#e2c1bb" />
    <path
        d="m12.742 11.048-.455-.565-.455.565c-.391.485-1.302 1.697-1.302 2.467 0 .969.789 1.758 1.758 1.758s1.758-.789 1.758-1.758c0-.771-.911-1.982-1.302-2.467z"
        fill="#ffdf40" style="fill:#239560" />
    <path d="M14.044 13.516c0-.771-.911-1.982-1.302-2.467l-.455-.565v4.789a1.76 1.76 0 0 0 1.758-1.758z" fill="#ffbe40"
        style="fill:#2d9f6e" />
</svg>