<svg viewBox="0 0 20 20" xmlns="http://www.w3.org/2000/svg" width="20" height="20">
    <path d="M16.445 0h1.172v1.758h-1.172zm0 11.758 1.172-1.172V7.031h-1.172z" fill="#36464d" />
    <path d="M2.383 0h1.172v1.758H2.383zm1.172 11.758-1.172-1.172V7.031h1.172zm-2.344 7.07 1.172-1.172V20H1.211z"
        fill="#485c66" />
    <path d="M2.383 10.586h15.234v7.07H2.383z" fill="#ff5959" />
    <path d="M10 10.586h7.617v7.07H10z" fill="#e63a57" />
    <path
        d="M2.969 3.516c-.577 0-1.094-.418-1.427-.77l-.381-.402.381-.403c.33-.351.847-.769 1.427-.769.577 0 1.094.418 1.427.77l.381.402-.381.403c-.331.35-.847.769-1.427.769zm0-1.172h.011z"
        fill="#a0e65c" />
    <path
        d="M2.969 5.859c-.577 0-1.094-.418-1.427-.77l-.381-.401.381-.403c.33-.351.847-.769 1.427-.769.577 0 1.094.418 1.427.77l.381.402-.381.403c-.331.35-.847.768-1.427.768zm0-1.172h.011z"
        fill="#ffdf40" />
    <path
        d="M2.969 8.203c-.577 0-1.094-.418-1.427-.77l-.381-.402.381-.403c.33-.35.847-.769 1.427-.769.577 0 1.094.418 1.427.77l.381.402-.381.403c-.331.351-.847.769-1.427.769zm0-1.172h.011z"
        fill="#a0e65c" />
    <path d="m17.617 17.656 1.172 1.172V20h-1.172z" fill="#36464d" />
    <path
        d="m15.604 2.747-.381-.403.381-.402c.333-.352.85-.77 1.427-.77.58 0 1.096.418 1.427.769l.381.403-.381.402c-.333.351-.85.77-1.427.77-.58 0-1.096-.418-1.427-.769zm1.416-.403h.011z"
        fill="#ffbe40" />
    <path
        d="m15.604 5.09-.381-.402.381-.402c.333-.352.85-.77 1.427-.77.58 0 1.096.418 1.427.769l.381.403-.381.402c-.333.351-.85.769-1.427.769-.58 0-1.096-.418-1.427-.769zm1.416-.402h.011z"
        fill="#79cc52" />
    <path
        d="m15.604 7.434-.381-.403.381-.402c.333-.351.85-.77 1.427-.77.58 0 1.096.418 1.427.769l.381.403-.381.402c-.333.352-.85.77-1.427.77-.58 0-1.096-.418-1.427-.769zm1.416-.403h.011z"
        fill="#ffbe40" />
    <path
        d="M14.102 12.93h-2.93c-.647 0-1.172.525-1.172 1.172 0-.647-.525-1.172-1.172-1.172h-2.93c-.647 0-1.172.525-1.172 1.172v3.555h10.547v-3.555c0-.647-.525-1.172-1.172-1.172z"
        fill="#fff5e6" />
    <path d="M15.273 17.656H10v-3.555c0-.647.525-1.172 1.172-1.172h2.93c.647 0 1.172.525 1.172 1.172z" fill="#f9d9ba" />
    <path d="M1.211 16.484h17.578v2.344H1.211z" fill="#cc6e5c" />
    <path d="M10 16.484h8.789v2.344H10z" fill="#a65342" />
</svg>