<svg viewBox="0 0 20 20" xmlns="http://www.w3.org/2000/svg" width="20" height="20">
    <path d="M16.256 10.657H3.673a.541.541 0 0 0-.541.538l-.012 2.211h13.695v-2.19a.558.558 0 0 0-.558-.558z"
        fill="#bc705d" />
    <path d="M16.256 10.657h-6.241v2.748h6.8v-2.19a.558.558 0 0 0-.558-.558z" fill="#8c4537" style="fill:#cd887a" />
    <path d="M17.419 13.333H2.532a.541.541 0 0 0-.541.538l-.012 2.211h15.998v-2.19a.558.558 0 0 0-.558-.558z"
        fill="#fff0b6" />
    <path d="M17.419 13.333h-7.41v2.748h7.968v-2.19a.558.558 0 0 0-.558-.558z" fill="#ffc478" />
    <path
        d="M19.461 15.922H.539a.535.535 0 0 0-.535.535v3.008A.534.534 0 0 0 .539 20h18.923c.296 0 .535-.24.535-.535v-3.008a.535.535 0 0 0-.535-.535z"
        fill="#8c4537" style="fill:#cd887a" />
    <path d="M19.461 15.922h-9.452V20h9.452c.296 0 .535-.24.535-.535v-3.008a.535.535 0 0 0-.535-.535z" fill="#4c160d"
        style="fill:#adaaa9" />
    <path
        d="M2.498 17.993a.62.62 0 0 1-.621.62.62.62 0 0 1-.62-.62.62.62 0 0 1 1.241 0zm2.692 0a.62.62 0 0 1-.621.62.62.62 0 0 1-.62-.62.62.62 0 0 1 1.241 0zm2.692 0a.62.62 0 0 1-.62.62.62.62 0 0 1-.621-.62.62.62 0 0 1 1.241 0zm2.739 0a.62.62 0 0 1-.62.62.62.62 0 0 1-.62-.62.62.62 0 0 1 1.24 0z"
        fill="#bc705d" />
    <path fill="#8c4537" style="fill:#cd887a"
        d="M13.266 17.993a.62.62 0 0 1-.62.62.62.62 0 0 1-.621-.62.62.62 0 0 1 1.241 0zm2.692 0a.62.62 0 0 1-.62.62.62.62 0 0 1-.62-.62.62.62 0 0 1 1.24 0zm2.692 0a.62.62 0 0 1-.62.62.62.62 0 0 1-.62-.62.62.62 0 0 1 1.24 0zm-8.641-.621v1.24a.618.618 0 0 0 .431-.181.62.62 0 0 0 0-.877.618.618 0 0 0-.431-.181z" />
    <path
        d="M13.908 6.909v-.003a4.052 4.052 0 0 0-.267-1.229.362.362 0 0 0-.006-.017c-.009-.021-.845-2.062-.453-3.183a.323.323 0 0 0-.319-.429c-.029.001-.614.034-1.235.58-.543-1.121-.629-2.312-.63-2.324a.323.323 0 0 0-.49-.256c-.857.518-1.519 1.15-1.968 1.878a4.648 4.648 0 0 0-.664 1.931 5.072 5.072 0 0 0-.001 1.117.196.196 0 0 1-.27.203l-.832-.34a.334.334 0 0 0-.179-.023.324.324 0 0 0-.261.23 6.864 6.864 0 0 0-.173.742 5.11 5.11 0 0 0 .168 2.442 4.257 4.257 0 0 0 1.265 1.935c.678.578 1.5.872 2.395.872a4.75 4.75 0 0 0 1.539-.271 3.376 3.376 0 0 0 1.918-1.644 4.234 4.234 0 0 0 .464-2.211z"
        fill="#ff6b6b" />
    <path
        d="M13.908 6.905a4.052 4.052 0 0 0-.267-1.229.362.362 0 0 0-.006-.017c-.009-.021-.845-2.062-.453-3.183a.323.323 0 0 0-.319-.429c-.026.001-.49.027-1.028.415a.215.215 0 0 1-.323-.09c-.44-1.039-.513-2.057-.514-2.069a.323.323 0 0 0-.49-.256 7.13 7.13 0 0 0-.489.323v10.664a4.778 4.778 0 0 0 1.508-.27 3.376 3.376 0 0 0 1.918-1.644 4.224 4.224 0 0 0 .464-2.211.085.085 0 0 0 0-.003z"
        fill="#ff3d7d" />
    <path
        d="M10.875 5.603a.323.323 0 0 0-.591.204c.039.517-.013 2.035-.732 2.232-.612.168-.938-.116-.97-.145a.317.317 0 0 0-.31-.092.325.325 0 0 0-.233.234c-.006.023-.06.225-.083.357-.146.848.131 1.688.723 2.193a1.85 1.85 0 0 0 1.222.447c.249 0 .508-.045.772-.136.426-.146.791-.455 1.054-.894.22-.367.348-.795.351-1.174.008-.976-.364-1.972-1.205-3.228z"
        fill="#ffeb00" />
    <path
        d="M10.501 5.478a.323.323 0 0 0-.217.33c.027.369.009 1.248-.265 1.793v3.431c.213-.012.433-.055.656-.132.426-.146.791-.455 1.054-.894.22-.367.348-.795.351-1.174.008-.976-.364-1.972-1.205-3.228a.323.323 0 0 0-.374-.126z"
        fill="#ffb454" />
</svg>