<svg viewBox="0 0 20 20" xmlns="http://www.w3.org/2000/svg" width="20" height="20">
    <path d="M13.203 5.625h1.172v1.172h-1.172z" fill="#e63a57" />
    <path d="M5.625 5.625h1.172v1.172H5.625z" fill="#ff5959" />
    <path d="M13.203 13.242h1.172v1.172h-1.172z" fill="#e63a57" />
    <path d="M5.625 13.242h1.172v1.172H5.625z" fill="#ff5959" />
    <path
        d="M20 15.859v2.344h-.586a2.932 2.932 0 0 1-2.93-2.93v-4.101h-5.312v7.656H4.727a.58.58 0 0 0-.586.586V20H1.797v-.586a2.932 2.932 0 0 1 2.93-2.93h4.102v-5.312H1.172V4.727a.58.58 0 0 0-.586-.586H0V1.797h.586a2.932 2.932 0 0 1 2.93 2.93v4.102h5.313V1.172h6.445a.58.58 0 0 0 .586-.586V0h2.344v.586a2.932 2.932 0 0 1-2.93 2.93h-4.102v5.313h7.656v6.445a.58.58 0 0 0 .586.586z"
        fill="#ff5959" />
    <path
        d="M20 15.859v2.344h-.586a2.932 2.932 0 0 1-2.93-2.93v-4.101h-5.312v7.656H10V1.172h5.273a.58.58 0 0 0 .586-.586V0h2.344v.586a2.932 2.932 0 0 1-2.93 2.93h-4.101v5.313h7.656v6.445a.58.58 0 0 0 .586.586z"
        fill="#e63a57" />
</svg>