<svg xmlns="http://www.w3.org/2000/svg" viewBox="0 0 20 20" style="enable-background:new 0 0 512 512"
    xml:space="preserve" width="20" height="20">
    <path style="fill:#ffeabd"
        d="M11.875 3.438A1.563 1.563 0 0 1 10.313 5 1.563 1.563 0 0 1 8.75 3.438a1.563 1.563 0 0 1 3.125 0z" />
    <path style="fill:#ffdd95"
        d="M10.742 4.766a1.563 1.563 0 0 1-.953-2.801 1.563 1.563 0 0 0 .524 3.036 1.555 1.555 0 0 0 .953-.324 1.559 1.559 0 0 1-.524.089z" />
    <path style="fill:#ffeabd"
        d="M15.121.015a.626.626 0 0 0-.746.475l-.883 2.947-1.929 2.188H8.75L7.812 3.75 8.685.937A.626.626 0 0 0 8.29.146a.626.626 0 0 0-.79.396l-.905 2.896a.625.625 0 0 0 .011.425l1.519 3.325v3.125L6.25 14.376l-1.213 4.848a.625.625 0 0 0 .607.777c.28 0 .535-.19.606-.396l1.563-4.917 1.563-3.438h.625s.211 3.299.228 3.438l1.959 4.764a.626.626 0 0 0 .697.543.626.626 0 0 0 .543-.698l-1.553-4.922s-.385-4.063-.313-4.688c0-.313.313-2.5.313-2.5l2.629-2.996a.625.625 0 0 0 .168-.306L15.595.76a.626.626 0 0 0-.475-.746z" />
    <path style="fill:#676779"
        d="M12.188 1.875a.625.625 0 0 1-.625.625.625.625 0 0 1-.625-.625.625.625 0 0 1 1.25 0z" />
    <path style="fill:#7d7d8c" d="M10.313 1.875c-.863 0-1.563.7-1.563 1.563h3.125c0-.863-.7-1.563-1.563-1.563z" />
    <path style="fill:#676779"
        d="M10.625 1.906a1.569 1.569 0 0 0-.313-.031c-.863 0-1.563.7-1.563 1.563h.625c0-.756.537-1.386 1.25-1.531z" />
    <path style="fill:#fcd308"
        d="M11.25 7.188a.313.313 0 0 1-.313-.313v-1.25a.313.313 0 0 1 .625 0v1.25a.313.313 0 0 1-.313.313zm-2.5.312a.313.313 0 0 1-.307-.374l.313-1.563a.313.313 0 0 1 .613.123l-.313 1.563a.313.313 0 0 1-.306.251z" />
    <path style="fill:#9d5cad"
        d="m8.125 7.188 4.063-.313-.313 2.813 1.119 3.638a.312.312 0 0 1-.313.404l-5.97-.271a.312.312 0 0 1-.27-.441L7.813 10l.313-2.813z" />
    <path style="fill:#8759b5"
        d="m8.879 7.129-.754.059-.313 2.813-1.371 3.017a.312.312 0 0 0 .27.441l.337.015L8.438 10l.442-2.871z" />
    <path style="fill:#fcd308"
        d="m11.875 9.688.044-.396-3.912-1.043-.07.629 4.018 1.071Zm.206.669-4.667.519-.301.662 5.155-.573Z" />
    <path style="fill:#fdc40a" d="m8.679 8.429-.672-.18-.07.629.647.172Zm-.56 2.368-.705.079-.301.662.742-.082Z" />
    <path style="fill:#ffe17a"
        d="M18.438 4.063a.94.94 0 0 1-.938-.938.313.313 0 0 0-.625 0 .94.94 0 0 1-.938.938.313.313 0 0 0 0 .625.94.94 0 0 1 .938.938.313.313 0 0 0 .625 0 .94.94 0 0 1 .938-.938.313.313 0 0 0 0-.625zm-1.25 10a.94.94 0 0 1-.938-.938.313.313 0 0 0-.625 0 .94.94 0 0 1-.938.938.313.313 0 0 0 0 .625.94.94 0 0 1 .938.938.313.313 0 0 0 .625 0 .94.94 0 0 1 .938-.938.313.313 0 0 0 0-.625zm-11.563-2.5a.94.94 0 0 1-.938-.938.313.313 0 0 0-.625 0 .94.94 0 0 1-.938.938.313.313 0 0 0 0 .625.94.94 0 0 1 .938.938.313.313 0 0 0 .625 0 .94.94 0 0 1 .938-.938.313.313 0 0 0 0-.625zm-2.187-7.5a.313.313 0 0 0 .313-.313c0-.689.561-1.25 1.25-1.25a.313.313 0 0 0 0-.625c-.689 0-1.25-.561-1.25-1.25a.313.313 0 0 0-.625 0c0 .689-.561 1.25-1.25 1.25a.313.313 0 0 0 0 .625c.689 0 1.25.561 1.25 1.25a.313.313 0 0 0 .313.313z" />
    <path style="fill:#8759b5"
        d="M2.813 9.219a.313.313 0 0 1-.313-.313V5.937a.313.313 0 0 1 .214-.296l2.813-.938a.316.316 0 0 1 .411.296v2.617a.313.313 0 0 1-.625 0V5.432l-2.188.729v2.745a.313.313 0 0 1-.313.313z" />
    <path style="fill:#ff6bb5"
        d="M1.875 7.813c-.689 0-1.25.477-1.25 1.063s.561 1.063 1.25 1.063 1.25-.477 1.25-1.063-.561-1.063-1.25-1.063z" />
    <path style="fill:#fa3eaf"
        d="M1.875 9.547c-.611 0-1.12-.374-1.228-.867a.91.91 0 0 0-.022.195c0 .586.561 1.063 1.25 1.063s1.25-.477 1.25-1.063a.897.897 0 0 0-.022-.195c-.108.493-.618.867-1.228.867z" />
    <path style="fill:#ff6bb5"
        d="M4.688 6.625c-.689 0-1.25.477-1.25 1.063s.561 1.063 1.25 1.063 1.25-.477 1.25-1.063-.561-1.063-1.25-1.063z" />
    <path style="fill:#fa3eaf"
        d="M4.688 8.32c-.603 0-1.107-.364-1.224-.848a.91.91 0 0 0-.026.215c0 .586.561 1.063 1.25 1.063s1.25-.477 1.25-1.063a.904.904 0 0 0-.026-.215c-.117.484-.622.848-1.224.848z" />
    <path style="fill:#8759b5"
        d="M16.25 10.805a.313.313 0 0 1-.313-.313v-2.93a.313.313 0 0 1 .214-.296l2.813-.938a.316.316 0 0 1 .411.296v2.578a.313.313 0 0 1-.625 0V7.057l-2.188.729v2.706a.313.313 0 0 1-.313.313z" />
    <path style="fill:#ff6bb5"
        d="M15.313 9.438c-.689 0-1.25.477-1.25 1.063s.561 1.063 1.25 1.063 1.25-.477 1.25-1.063-.561-1.063-1.25-1.063z" />
    <path style="fill:#fa3eaf"
        d="M15.313 11.133c-.603 0-1.107-.364-1.224-.848a.91.91 0 0 0-.026.215c0 .586.561 1.063 1.25 1.063s1.25-.477 1.25-1.063a.904.904 0 0 0-.026-.215c-.117.483-.622.848-1.224.848z" />
    <path style="fill:#ff6bb5"
        d="M18.125 8.25c-.689 0-1.25.477-1.25 1.063s.561 1.062 1.25 1.062 1.25-.477 1.25-1.062-.561-1.063-1.25-1.063z" />
    <path style="fill:#fa3eaf"
        d="M18.125 9.945c-.603 0-1.107-.364-1.224-.848a.91.91 0 0 0-.026.215c0 .586.561 1.062 1.25 1.062s1.25-.477 1.25-1.062a.904.904 0 0 0-.026-.215c-.117.483-.622.848-1.224.848z" />
</svg>