<svg viewBox="0 0 20 20" xmlns="http://www.w3.org/2000/svg" width="20" height="20">
    <path d="M.829.258.414.673 0 1.087l1.657 1.657.414-.414.414-.414z" fill="#485c66" />
    <path d="M.414.673.828.259l1.657 1.657-.414.414z" fill="#36464d" />
    <path d="m4.742 17.665-1.398-4.196V4.674H2.172v8.795L.774 17.665z" fill="#ffdf40" />
    <path d="m11.039 8.811-.651.065-.885.885-.484.484-.466 1.052 1.657 1.657.78-.194.756-.756.521-.521.429-1.015z"
        fill="#485c66" />
    <path d="m12.696 10.468-1.657-1.657-.651.065-.885.885 2.243 2.243.521-.521z" fill="#36464d" />
    <path
        d="M18.497 12.126c-1.007 1.007-4.496-.353-5.801-1.657l-1.243 1.243-1.243 1.243c1.303 1.304 2.664 4.794 1.657 5.801l.829.243 3.022-3.022 3.022-3.022z"
        fill="#ffdf40" />
    <path d="M18.497 12.126c-1.007 1.007-4.496-.353-5.801-1.657l-1.243 1.243 4.265 4.265 3.022-3.022z" fill="#ffbe40" />
    <path d="m2.229.002-.621 1.864-.622 1.865 7.566 7.565 1.243-1.243 1.243-1.243z" fill="#cc6e5c" />
    <path d="m2.229.002-.621 1.864 8.188 8.188 1.243-1.243z" fill="#a65342" />
    <path d="m18.911 11.711-3.729 3.729-3.729 3.729.829.829 3.729-3.729 3.729-3.729z" fill="#ffbe40" />
    <path d="m15.179 15.441 3.728-3.728.828.828-3.729 3.729z" fill="#ff9f40" />
    <path
        d="M19.414 4.807a1.76 1.76 0 0 1-1.758-1.758v-.586h-1.172v4.795a1.73 1.73 0 0 0-.586-.108c-.969 0-1.758.789-1.758 1.758s.789 1.758 1.758 1.758 1.758-.789 1.758-1.758v-3.53a2.9 2.9 0 0 0 1.758.601H20V4.807z"
        fill="#e9f" />
    <path
        d="M17.656 8.908v-3.53a2.9 2.9 0 0 0 1.758.601H20V4.807h-.586a1.76 1.76 0 0 1-1.758-1.758v-.586h-1.172v4.795a1.73 1.73 0 0 0-.586-.108v3.516a1.76 1.76 0 0 0 1.758-1.758z"
        fill="#d580ff" />
</svg>