<svg viewBox="0 0 20 20" xmlns="http://www.w3.org/2000/svg" width="20" height="20">
    <path d="M8.701 6.848a6.723 6.723 0 0 1 2.35 3.779h3.346c-.632-2.788-2.916-4.896-5.696-5.096v1.316z"
        fill="#a6e7f0" />
    <path d="M8.701 5.532v.22c2.205.638 3.928 2.512 4.463 4.875h1.232C13.764 7.839 11.48 5.731 8.7 5.531z"
        fill="#6bd9e7" />
    <path
        d="m5.954 8.368 1.37-1.345.034-.07V2.656l-.034-.07-1.37-1.345A2.056 2.056 0 0 0 3.676.83L.594 2.204a.507.507 0 0 0-.301.463v4.275c0 .2.118.382.301.463l3.083 1.374a2.056 2.056 0 0 0 2.278-.411z"
        fill="#ffe177" />
    <path
        d="M5.954 6.896a2.056 2.056 0 0 1-2.278.411L.593 5.933a.507.507 0 0 1-.3-.463v1.472c0 .2.118.382.301.463l3.083 1.374a2.056 2.056 0 0 0 2.278-.411l1.37-1.345.034-.07V5.481l-.034.07z"
        fill="#ffd15b" />
    <path d="m3.677.831-.918.409v7.131l.917.409a2.053 2.053 0 0 0 2.123-.275v-7.4A2.058 2.058 0 0 0 3.676.83z"
        fill="#af66da" style="fill:#3bdebd" />
    <path d="M5.8 7.032a2.058 2.058 0 0 1-2.123.275l-.917-.409V8.37l.917.409A2.053 2.053 0 0 0 5.8 8.504z"
        fill="#9857bd" />
    <path
        d="M8.74 7.39V2.22a.169.169 0 0 0-.169-.169h-.42a.165.165 0 0 0-.096.03l-.73.505v4.436l.73.505c.028.02.062.03.096.03h.42a.169.169 0 0 0 .169-.169z"
        fill="#ffd15b" />
    <path
        d="M8.571 6.056h-.42a.169.169 0 0 1-.096-.03l-.73-.505v1.503l.73.505c.028.02.062.03.096.03h.42a.169.169 0 0 0 .169-.169V5.887a.169.169 0 0 1-.169.169z"
        fill="#ffc344" />
    <path
        d="M4.82 2.921v-.76a.117.117 0 0 0-.117-.117h-.76a.117.117 0 0 0-.117.117v.761a.117.117 0 0 0 .117.117h.761a.117.117 0 0 0 .117-.117zm0 2.264v-.761a.117.117 0 0 0-.117-.117h-.76a.117.117 0 0 0-.117.117v.761a.117.117 0 0 0 .117.117h.761a.117.117 0 0 0 .117-.117zm0 2.264v-.761a.117.117 0 0 0-.117-.117h-.76a.117.117 0 0 0-.117.117v.761a.117.117 0 0 0 .117.117h.761a.117.117 0 0 0 .117-.117z"
        fill="#fff" style="fill:#e5e1e1" />
    <path d="M19.083 13.703H5.928a.39.39 0 0 1-.391-.391v-2.724h13.936v2.724a.39.39 0 0 1-.391.391z" fill="#ffd15b" />
    <path d="M17.843 10.588v2.724a.39.39 0 0 1-.391.391h1.631a.39.39 0 0 0 .391-.391v-2.724z" fill="#ffc344" />
    <path d="M5.537 10.588h2.707a1.353 1.353 0 0 1-2.706 0z" fill="#fff0ad" />
    <path d="M7.433 10.588c0 .606-.399 1.119-.948 1.291a1.352 1.352 0 0 0 .405.062c.747 0 1.353-.606 1.353-1.353z"
        fill="#ffe177" />
    <path d="M8.344 10.588h2.707a1.353 1.353 0 0 1-2.706 0z" fill="#fff0ad" />
    <path d="M10.234 10.588c0 .605-.397 1.117-.945 1.29a1.352 1.352 0 0 0 .408.063c.747 0 1.353-.606 1.353-1.353h-.816z"
        fill="#ffe177" />
    <path d="M11.152 10.588h2.707a1.353 1.353 0 0 1-2.706 0z" fill="#fff0ad" />
    <path d="M13.047 10.588c0 .606-.398 1.119-.947 1.291a1.352 1.352 0 0 0 .406.062c.747 0 1.353-.606 1.353-1.353z"
        fill="#ffe177" />
    <path d="M13.959 10.588h2.707a1.353 1.353 0 0 1-2.706 0z" fill="#fff0ad" />
    <path d="M15.859 10.588c0 .607-.4 1.121-.95 1.292a1.353 1.353 0 0 0 .403.061c.747 0 1.353-.606 1.353-1.353z"
        fill="#ffe177" />
    <path d="M16.767 10.588h2.707a1.353 1.353 0 0 1-2.706 0z" fill="#fff0ad" />
    <path d="M18.672 10.588c0 .608-.401 1.122-.953 1.293a1.353 1.353 0 0 0 .401.06c.747 0 1.353-.606 1.353-1.353h-.801z"
        fill="#ffe177" />
    <path
        d="M6.442 14.541a.293.293 0 0 0-.293.293v.584a.293.293 0 1 0 .586 0v-.584a.293.293 0 0 0-.293-.293zm2.686 0a.293.293 0 0 0-.293.293v.584a.293.293 0 1 0 .586 0v-.584a.293.293 0 0 0-.293-.293zm2.686 0a.293.293 0 0 0-.293.293v.584a.293.293 0 1 0 .586 0v-.584a.293.293 0 0 0-.293-.293zm2.686 0a.293.293 0 0 0-.293.293v.584a.293.293 0 1 0 .586 0v-.584a.293.293 0 0 0-.293-.293zm2.686 0a.293.293 0 0 0-.293.293v.584a.293.293 0 1 0 .586 0v-.584a.293.293 0 0 0-.293-.293zm-9.362 1.246a.293.293 0 0 0-.293.293v.584a.293.293 0 1 0 .586 0v-.584a.293.293 0 0 0-.293-.293zm2.686 0a.293.293 0 0 0-.293.293v.584a.293.293 0 1 0 .586 0v-.584a.293.293 0 0 0-.293-.293zm2.686 0a.293.293 0 0 0-.293.293v.584a.293.293 0 1 0 .586 0v-.584a.293.293 0 0 0-.293-.293zm2.686 0a.293.293 0 0 0-.293.293v.584a.293.293 0 1 0 .586 0v-.584a.293.293 0 0 0-.293-.293zm2.686 0a.293.293 0 0 0-.293.293v.584a.293.293 0 1 0 .586 0v-.584a.293.293 0 0 0-.293-.293zm-12.126 1.44a.293.293 0 0 0-.293.293v.584a.293.293 0 1 0 .586 0v-.584a.293.293 0 0 0-.293-.293zm2.686 0a.293.293 0 0 0-.293.293v.584a.293.293 0 1 0 .586 0v-.584a.293.293 0 0 0-.293-.293zm2.686 0a.293.293 0 0 0-.293.293v.584a.293.293 0 1 0 .586 0v-.584a.293.293 0 0 0-.293-.293zm2.686 0a.293.293 0 0 0-.293.293v.584a.293.293 0 1 0 .586 0v-.584a.293.293 0 0 0-.293-.293zm2.686 0a.293.293 0 0 0-.293.293v.584a.293.293 0 1 0 .586 0v-.584a.293.293 0 0 0-.293-.293zm-9.362 1.246a.293.293 0 0 0-.293.293v.584a.293.293 0 1 0 .586 0v-.584a.293.293 0 0 0-.293-.293zm2.686 0a.293.293 0 0 0-.293.293v.584a.293.293 0 1 0 .586 0v-.584a.293.293 0 0 0-.293-.293zm2.686 0a.293.293 0 0 0-.293.293v.584a.293.293 0 1 0 .586 0v-.584a.293.293 0 0 0-.293-.293zm2.686 0a.293.293 0 0 0-.293.293v.584a.293.293 0 1 0 .586 0v-.584a.293.293 0 0 0-.293-.293zm2.686 0a.293.293 0 0 0-.293.293v.584a.293.293 0 1 0 .586 0v-.584a.293.293 0 0 0-.293-.293zM1.746 2.552h-.135a.293.293 0 1 0 0 .586h.135a.293.293 0 1 0 0-.586zm0 .98h-.135a.293.293 0 1 0 0 .586h.135a.293.293 0 1 0 0-.586zm0 .98h-.135a.293.293 0 1 0 0 .586h.135a.293.293 0 1 0 0-.586zm0 .98h-.135a.293.293 0 1 0 0 .586h.135a.293.293 0 1 0 0-.586zm0 .98h-.135a.293.293 0 1 0 0 .586h.135a.293.293 0 1 0 0-.586zm1.787-4.311v.761c0 .226.184.41.41.41h.761a.41.41 0 0 0 .41-.41v-.761a.41.41 0 0 0-.41-.41h-.761a.41.41 0 0 0-.41.41zm.586.176h.408v.408h-.408zm.585 1.678h-.761a.41.41 0 0 0-.41.41v.761c0 .226.184.41.41.41h.761a.41.41 0 0 0 .41-.41v-.761a.41.41 0 0 0-.41-.41zm-.176.994h-.409v-.408h.408zm.176 1.269h-.761a.41.41 0 0 0-.41.41v.761c0 .226.184.41.41.41h.761a.41.41 0 0 0 .41-.41v-.761a.41.41 0 0 0-.41-.41zm-.176.994h-.409v-.408h.408z"
        style="fill:#f2f2f2" />
    <path
        d="M19.707 10.295h-5.091a6.975 6.975 0 0 0-2.08-3.417A6.363 6.363 0 0 0 9.033 5.27V4.22a.293.293 0 1 0-.586 0v3.046h-.258l-.572-.396V2.74l.572-.396h.258v.509a.293.293 0 1 0 .586 0V2.22a.462.462 0 0 0-.462-.462h-.42a.46.46 0 0 0-.263.082l-.531.368L6.16 1.033a2.336 2.336 0 0 0-2.602-.47L.474 1.937a.801.801 0 0 0-.474.73v4.275a.801.801 0 0 0 .474.731l3.083 1.374a2.338 2.338 0 0 0 2.602-.469l1.197-1.175.531.368a.46.46 0 0 0 .263.082h.42c.21 0 .388-.141.443-.334a6.465 6.465 0 0 1 1.646 2.778H5.303a.293.293 0 0 0-.059.58v2.437c0 .377.307.684.684.684h1.603v.371a.293.293 0 1 0 .586 0v-.371h.321a.293.293 0 1 0 0-.586h-2.51a.098.098 0 0 1-.098-.098v-1.466a1.647 1.647 0 0 0 2.464-.399 1.647 1.647 0 0 0 2.808 0 1.647 1.647 0 0 0 2.808 0 1.647 1.647 0 0 0 2.808 0 1.647 1.647 0 0 0 2.464.399v1.466a.098.098 0 0 1-.098.098H9.805a.293.293 0 1 0 0 .586h.413v.371a.293.293 0 1 0 .586 0v-.371h2.1v.371a.293.293 0 1 0 .586 0v-.371h2.1v.371a.293.293 0 1 0 .586 0v-.371h2.1v.371a.293.293 0 1 0 .586 0v-.371h.221a.685.685 0 0 0 .684-.684v-2.437a.293.293 0 0 0-.059-.58zm-14.2-1.938c-.5.343-1.142.407-1.711.154l-.744-.331V6.368a.293.293 0 1 0-.586 0v1.551L.712 7.138a.214.214 0 0 1-.127-.195V2.667a.214.214 0 0 1 .127-.195l1.754-.781v3.31a.293.293 0 1 0 .586 0V1.43l.744-.331a1.752 1.752 0 0 1 1.711.154v7.105zm1.524-1.458-.938.921V1.789l.938.921zm-.141 4.749c-.483 0-.892-.325-1.019-.767h2.038a1.061 1.061 0 0 1-1.019.767zm2.807 0c-.483 0-.892-.325-1.019-.767h2.038a1.061 1.061 0 0 1-1.019.767zm2.807 0c-.483 0-.892-.325-1.019-.767h2.038a1.061 1.061 0 0 1-1.019.767zm1.093-1.353a6.01 6.01 0 0 0-1.723-2.696.293.293 0 0 0-.391.437 5.414 5.414 0 0 1 1.496 2.259H11.27a7.031 7.031 0 0 0-2.237-3.554V5.86a5.788 5.788 0 0 1 3.111 1.453 6.387 6.387 0 0 1 1.864 2.981zm1.715 1.353c-.483 0-.892-.325-1.019-.767h2.038a1.061 1.061 0 0 1-1.019.767zm2.807 0c-.483 0-.892-.325-1.019-.767h2.038a1.061 1.061 0 0 1-1.019.767z"
        style="fill:#f2f2f2" />
</svg>