<svg viewBox="0 0 20 20" xmlns="http://www.w3.org/2000/svg" width="20" height="20">
    <path
        d="M17.031 10.586a2.933 2.933 0 0 0-2.93 2.93v3.555c0 .969-.789 1.758-1.758 1.758s-1.758-.789-1.758-1.758v-.586H9.413v.586c0 .654.223 1.252.586 1.74A2.923 2.923 0 0 0 12.344 20a2.933 2.933 0 0 0 2.93-2.93v-3.555c0-.969.789-1.758 1.758-1.758s1.797.789 1.797 1.758v6.484h1.172v-6.483c0-1.615-1.353-2.93-2.969-2.93z"
        fill="#485c66" />
    <path
        d="M12.344 20a2.933 2.933 0 0 0 2.93-2.93v-3.555c0-.969.789-1.758 1.758-1.758s1.797.789 1.797 1.758v6.484h1.172v-6.483c0-1.615-1.353-2.93-2.969-2.93s-2.93 1.314-2.93 2.93v3.555c0 .969-.789 1.758-1.758 1.758s-1.758-.789-1.758-1.758v-.586H10v2.326A2.92 2.92 0 0 0 12.344 20z"
        fill="#36464d" />
    <path d="M10 7.238H7.691l.583 10.418h3.452l.584-10.418z" fill="#ff5959" />
    <path d="M12.309 7.238H10v10.418h1.726z" fill="#e63a57" />
    <path d="M10 0C7.739 0 5.898 1.879 5.898 4.141S7.738 8.243 10 8.243s4.102-1.84 4.102-4.102S12.261 0 10 0z"
        fill="#485c66" />
    <path d="M14.102 4.141C14.102 1.879 12.261 0 10 0v8.242a4.107 4.107 0 0 0 4.102-4.102z" fill="#36464d" />
    <path d="M10 3.555H4.727v1.172h10.547V3.555z" fill="#36464d" />
    <path d="M10 3.555h5.273v1.172H10z" fill="#242e33" />
    <path
        d="M5.313 7.07a1.76 1.76 0 0 1-1.758-1.758v-.586H2.383v4.795a1.755 1.755 0 0 0-.586-.107C.828 9.414 0 10.203 0 11.172s.828 1.758 1.797 1.758 1.758-.789 1.758-1.758v-3.53c.491.371 1.095.6 1.758.6h.586V7.07z"
        fill="#ffdf40" />
    <path
        d="M3.555 11.172v-3.53c.491.371 1.095.6 1.758.6h.586V7.07h-.586a1.76 1.76 0 0 1-1.758-1.758v-.586H2.383v4.795a1.755 1.755 0 0 0-.586-.107v3.516a1.76 1.76 0 0 0 1.758-1.758z"
        fill="#ffbe40" />
    <path
        d="M19.414 3.555c-.969 0-1.797-.789-1.797-1.758v-.586h-1.172v4.795a1.73 1.73 0 0 0-.586-.108c-.969 0-1.758.789-1.758 1.758s.789 1.758 1.758 1.758 1.758-.789 1.758-1.758v-3.53a3.016 3.016 0 0 0 1.797.601H20V3.555z"
        fill="#e9f" />
    <path
        d="M17.617 7.656v-3.53a3.016 3.016 0 0 0 1.797.601H20V3.555h-.586c-.969 0-1.797-.789-1.797-1.758v-.586h-1.172v4.795a1.73 1.73 0 0 0-.586-.108v3.516a1.76 1.76 0 0 0 1.758-1.758z"
        fill="#d580ff" />
    <path d="M10 1.211h-.586v1.172h1.172V1.211z" fill="#36464d" />
    <path d="M10 1.211h.586v1.172H10z" fill="#242e33" />
</svg>