<svg viewBox="0 0 20 20" xmlns="http://www.w3.org/2000/svg" width="20" height="20">
    <path
        d="M7.299 15.405v-1.106a1.02 1.02 0 0 1-.256-.388l-.037-.1-.037.1a1.019 1.019 0 0 1-.256.388v1.085a.951.951 0 0 1 .259-.036.955.955 0 0 1 .326.057zm5.987 0v-1.106a1.02 1.02 0 0 1-.256-.388l-.037-.1-.037.1a1.019 1.019 0 0 1-.256.388v1.085a.951.951 0 0 1 .259-.036.955.955 0 0 1 .326.057z"
        fill="#ffc344" />
    <g fill="#ffc344">
        <path
            d="M4.032 10.629a.61.61 0 0 1-.431.178.61.61 0 0 1-.183-.028l.9 1.248a.292.292 0 0 0 .059.06.638.638 0 0 1 .329-.524zm12.367.178a.61.61 0 0 1-.431-.178l-.674.934a.638.638 0 0 1 .329.524.291.291 0 0 0 .059-.06l.9-1.248a.62.62 0 0 1-.183.028z" />
        <path
            d="M16.399 2.425c.106 0 .206.027.293.075V1.188a.605.605 0 0 1-.586 0v1.313a.608.608 0 0 1 .293-.075zm0 1.224a.605.605 0 0 1-.293-.075v1.313a.605.605 0 0 1 .586 0V3.574a.608.608 0 0 1-.293.075zm-.293 2.311v1.313a.605.605 0 0 1 .586 0V5.96a.605.605 0 0 1-.586 0zm.293 2.461a.605.605 0 0 1-.293-.075v1.313a.605.605 0 0 1 .586 0V8.346a.608.608 0 0 1-.293.075zM3.601 2.425c.106 0 .206.027.293.075V1.188a.605.605 0 0 1-.586 0v1.313a.607.607 0 0 1 .293-.075zm0 1.224a.605.605 0 0 1-.293-.075v1.313a.605.605 0 0 1 .586 0V3.574a.608.608 0 0 1-.293.075zm0 4.772a.605.605 0 0 1-.293-.075v1.313a.605.605 0 0 1 .586 0V8.346a.608.608 0 0 1-.293.075zM3.308 5.96v1.313a.605.605 0 0 1 .586 0V5.96a.605.605 0 0 1-.586 0z"
            style="fill:#836767" fill="#000" />
    </g>
    <path
        d="m13.968 13.319-3.682 1.883a.628.628 0 0 1-.572 0l-3.682-1.883a10.632 10.632 0 0 0-1.247-.561.677.677 0 0 1 .228-1.314h9.974a.677.677 0 0 1 .228 1.314c-.429.154-.841.353-1.247.561z"
        fill="#fff0ad" />
    <path
        d="m10.953 13.766-1.978 1.011a.755.755 0 0 1-.05.022l.788.403a.628.628 0 0 0 .572 0l1.299-.664a1.066 1.066 0 0 1-.632-.772zm4.034-2.322h-.682a.674.674 0 0 1 .049.252.675.675 0 0 1-.449.637 9.982 9.982 0 0 0-1.13.501 1.063 1.063 0 0 1 .219.356 1.063 1.063 0 0 1 1.84-.282 7.284 7.284 0 0 1 .382-.15.677.677 0 0 0-.228-1.314zm-7.915 2.114a1.063 1.063 0 0 1-1.063 1.062 1.063 1.063 0 0 1-1.063-1.062 1.063 1.063 0 0 1 2.126 0z"
        fill="#ffe177" />
    <path
        d="M6.009 12.495c-.148 0-.29.031-.418.085a1.063 1.063 0 0 1 0 1.954 1.059 1.059 0 0 0 .418.085 1.063 1.063 0 0 0 0-2.126z"
        fill="#ffd15b" />
    <path fill="#2abcc8"
        d="M9.067 13.558a1.063 1.063 0 0 1-1.063 1.062 1.063 1.063 0 0 1-1.063-1.062 1.063 1.063 0 0 1 2.126 0z" />
    <path
        d="M8.004 12.495c-.148 0-.29.031-.418.085a1.063 1.063 0 0 1 0 1.954 1.059 1.059 0 0 0 .418.085 1.063 1.063 0 0 0 0-2.126z"
        fill="#0cacba" />
    <path fill="#2abcc8"
        d="M13.059 13.558a1.063 1.063 0 0 1-1.063 1.062 1.063 1.063 0 0 1-1.063-1.062 1.063 1.063 0 0 1 2.126 0z" />
    <path
        d="M11.996 12.495c-.148 0-.29.031-.418.085a1.063 1.063 0 0 1 0 1.954 1.059 1.059 0 0 0 .418.085 1.063 1.063 0 0 0 0-2.126z"
        fill="#0cacba" />
    <path fill="#ffe177"
        d="M15.054 13.558a1.063 1.063 0 0 1-1.063 1.062 1.063 1.063 0 0 1-1.063-1.062 1.063 1.063 0 0 1 2.126 0z" />
    <path
        d="M13.991 12.495c-.148 0-.29.031-.418.085a1.063 1.063 0 0 1 0 1.954 1.059 1.059 0 0 0 .418.085 1.063 1.063 0 0 0 0-2.126z"
        fill="#ffd15b" />
    <path
        d="M9.352 17.621a.99.99 0 0 0-.428-.817.995.995 0 0 0-1.163-1.107.993.993 0 0 0-1.605.04.995.995 0 0 0-1.107 1.163.993.993 0 0 0 .04 1.605.995.995 0 0 0 1.163 1.107.993.993 0 0 0 1.605-.04.995.995 0 0 0 1.107-1.163.993.993 0 0 0 .388-.788z"
        fill="#ffe177" />
    <path
        d="M9.352 17.621a.99.99 0 0 0-.428-.817.995.995 0 0 0-1.163-1.107.993.993 0 0 0-.788-.388.989.989 0 0 0-.634.229 2.193 2.193 0 0 1 .164 4.304.988.988 0 0 0 .537.158.99.99 0 0 0 .817-.428.995.995 0 0 0 1.107-1.163.993.993 0 0 0 .388-.788z"
        fill="#ffd15b" />
    <path fill="#af66da"
        d="M7.852 17.655a.846 1.104 0 0 1-.845 1.103.846 1.104 0 0 1-.846-1.103.846 1.104 0 0 1 1.691 0z" />
    <path
        d="M7.007 16.551a.698.698 0 0 0-.415.142c.257.189.431.549.431.961s-.174.772-.431.961c.123.09.264.142.415.142.467 0 .846-.494.846-1.104s-.379-1.104-.846-1.104z"
        fill="#9857bd" />
    <path
        d="M15.339 17.621a.99.99 0 0 0-.428-.817.995.995 0 0 0-1.163-1.107.993.993 0 0 0-1.605.04.995.995 0 0 0-1.107 1.163.993.993 0 0 0 .04 1.605.995.995 0 0 0 1.163 1.107.993.993 0 0 0 1.605-.04.995.995 0 0 0 1.107-1.163.993.993 0 0 0 .388-.788z"
        fill="#ffe177" />
    <path
        d="M15.339 17.621a.99.99 0 0 0-.428-.817.995.995 0 0 0-1.163-1.107.993.993 0 0 0-.788-.388.989.989 0 0 0-.634.229 2.193 2.193 0 0 1 .164 4.304.988.988 0 0 0 .537.158.99.99 0 0 0 .817-.428.995.995 0 0 0 1.107-1.163.993.993 0 0 0 .388-.788z"
        fill="#ffd15b" />
    <path fill="#af66da"
        d="M13.839 17.655a.846 1.104 0 0 1-.846 1.103.846 1.104 0 0 1-.845-1.103.846 1.104 0 0 1 1.691 0z" />
    <path
        d="M12.993 16.551a.692.692 0 0 0-.411.139c.26.188.435.55.435.965s-.176.776-.435.965a.7.7 0 0 0 .411.139c.467 0 .846-.494.846-1.104s-.379-1.104-.846-1.104z"
        fill="#9857bd" />
    <path
        d="M11.779 12.144a.754.754 0 0 0-.325-.62.753.753 0 0 0-.882-.84.752.752 0 0 0-1.217.031.753.753 0 0 0-.84.882.752.752 0 0 0 .031 1.217.753.753 0 0 0 .882.84.752.752 0 0 0 1.217-.031.753.753 0 0 0 .84-.882.752.752 0 0 0 .294-.597z"
        fill="#ffd15b" />
    <path
        d="M11.779 12.144a.754.754 0 0 0-.325-.62.753.753 0 0 0-.882-.84.752.752 0 0 0-.597-.294.749.749 0 0 0-.414.124 1.71 1.71 0 0 1-.279 3.151.759.759 0 0 0 .146-.012.752.752 0 0 0 1.217-.031.753.753 0 0 0 .84-.882.752.752 0 0 0 .294-.597z"
        fill="#ffc344" />
    <path fill="#ffe177"
        d="M4.252 10.195a.651.651 0 0 1-.651.651.651.651 0 0 1-.651-.651.651.651 0 0 1 1.302 0zm0-2.386a.651.651 0 0 1-.651.651.651.651 0 0 1-.651-.651.651.651 0 0 1 1.302 0zm0-2.386a.651.651 0 0 1-.651.651.651.651 0 0 1-.651-.651.651.651 0 0 1 1.302 0zm0-2.386a.651.651 0 0 1-.651.651.651.651 0 0 1-.651-.651.651.651 0 0 1 1.302 0zm0-2.386a.651.651 0 0 1-.651.65.651.651 0 0 1-.651-.65.651.651 0 0 1 1.302 0zm12.798 9.544a.651.651 0 0 1-.651.651.651.651 0 0 1-.651-.651.651.651 0 0 1 1.302 0zm0-2.386a.651.651 0 0 1-.651.651.651.651 0 0 1-.651-.651.651.651 0 0 1 1.302 0zm0-2.386a.651.651 0 0 1-.651.651.651.651 0 0 1-.651-.651.651.651 0 0 1 1.302 0zm0-2.386a.651.651 0 0 1-.651.651.651.651 0 0 1-.651-.651.651.651 0 0 1 1.302 0zm0-2.386a.651.651 0 0 1-.651.65.651.651 0 0 1-.651-.65.651.651 0 0 1 1.302 0z" />
</svg>