<svg viewBox="0 0 20 20" xmlns="http://www.w3.org/2000/svg" width="20" height="20">
    <path d="M17.316 4.511a1.048 1.048 0 0 1 .586 0V1.97h-.586z" fill="#6bd9e7" />
    <path
        d="M19.418 16.769a.678.678 0 0 0-.361-.599.677.677 0 0 0-.795-.861 1.044 1.044 0 0 1-.652.228 1.043 1.043 0 0 1-.652-.228.676.676 0 0 0-.795.861.677.677 0 0 0 0 1.198.677.677 0 0 0 .847.847.677.677 0 0 0 1.198 0 .677.677 0 0 0 .847-.847.677.677 0 0 0 .361-.599z"
        fill="#fe0364" />
    <path
        d="M19.418 16.769a.678.678 0 0 0-.361-.599.677.677 0 0 0-.795-.861 1.044 1.044 0 0 1-.55.223.677.677 0 0 1 .156.521.2.2 0 0 0 .076.183.677.677 0 0 1 0 1.068.202.202 0 0 0-.077.181.676.676 0 0 1-.854.737.679.679 0 0 0 1.196-.005.677.677 0 0 0 .847-.847.677.677 0 0 0 .361-.599z"
        fill="#e30256" />
    <path
        d="m18.221 13.693-.033-.01-.016.03a.636.636 0 0 1-.563.339.636.636 0 0 1-.563-.339l-.016-.03-.033.01a.638.638 0 0 1-.163.027 1.09 1.09 0 1 0 1.55 0 .639.639 0 0 1-.163-.027z"
        fill="#ffe177" />
    <path
        d="M18.384 13.72a.638.638 0 0 1-.163-.027l-.033-.01-.016.03a.637.637 0 0 1-.39.316 1.085 1.085 0 0 1 .101.458c0 .458-.282.849-.682 1.011a1.086 1.086 0 0 0 .408.079 1.09 1.09 0 0 0 .775-1.857z"
        fill="#ffd15b" />
    <path
        d="M19.418 12.285a.678.678 0 0 0-.361-.599.677.677 0 0 0-.795-.861 1.044 1.044 0 0 1-.652.228 1.043 1.043 0 0 1-.652-.228.676.676 0 0 0-.795.861.677.677 0 0 0 0 1.198.677.677 0 0 0 .847.847.677.677 0 0 0 1.198 0 .677.677 0 0 0 .847-.847.677.677 0 0 0 .361-.599z"
        fill="#fe0364" />
    <path
        d="M19.418 12.285a.678.678 0 0 0-.361-.599.677.677 0 0 0-.795-.861 1.044 1.044 0 0 1-.55.223.677.677 0 0 1 .156.521.2.2 0 0 0 .076.183.677.677 0 0 1 0 1.068.202.202 0 0 0-.077.181.676.676 0 0 1-.854.737.679.679 0 0 0 1.196-.005.677.677 0 0 0 .847-.847.677.677 0 0 0 .361-.599z"
        fill="#e30256" />
    <path
        d="m18.221 9.21-.033-.01-.016.03a.636.636 0 0 1-.563.339.636.636 0 0 1-.563-.339l-.016-.03-.033.01a.638.638 0 0 1-.163.027 1.09 1.09 0 1 0 1.55 0 .638.638 0 0 1-.163-.027z"
        fill="#ffe177" />
    <path
        d="M18.384 9.237a.638.638 0 0 1-.163-.027l-.033-.01-.016.03a.637.637 0 0 1-.39.316 1.085 1.085 0 0 1 .101.458c0 .458-.282.849-.682 1.011a1.086 1.086 0 0 0 .408.079 1.09 1.09 0 0 0 .775-1.857z"
        fill="#ffd15b" />
    <path
        d="M19.418 7.802a.678.678 0 0 0-.361-.599.677.677 0 0 0-.795-.861 1.044 1.044 0 0 1-.652.228 1.043 1.043 0 0 1-.652-.228.676.676 0 0 0-.795.861.677.677 0 0 0 0 1.198.677.677 0 0 0 .847.847.677.677 0 0 0 1.198 0 .677.677 0 0 0 .847-.847.677.677 0 0 0 .361-.599z"
        fill="#fe0364" />
    <path
        d="M19.418 7.802a.678.678 0 0 0-.361-.599.677.677 0 0 0-.795-.861 1.044 1.044 0 0 1-.55.223.677.677 0 0 1 .156.521.2.2 0 0 0 .076.183.677.677 0 0 1 0 1.068.202.202 0 0 0-.077.181.676.676 0 0 1-.854.737.679.679 0 0 0 1.196-.005.677.677 0 0 0 .847-.847.677.677 0 0 0 .361-.599z"
        fill="#e30256" />
    <path fill="#ffe177" d="M18.699 5.52a1.09 1.09 0 0 1-1.09 1.09 1.09 1.09 0 0 1-1.09-1.09 1.09 1.09 0 0 1 2.18 0z" />
    <path
        d="M17.609 4.431c-.144 0-.282.028-.408.079a1.09 1.09 0 0 1 0 2.022 1.086 1.086 0 0 0 .408.079 1.09 1.09 0 1 0 0-2.18z"
        fill="#ffd15b" />
    <path d="M2.098 4.511a1.048 1.048 0 0 1 .586 0V1.97h-.586z" fill="#6bd9e7" />
    <path
        d="M4.199 16.769a.678.678 0 0 0-.361-.599.677.677 0 0 0-.795-.861 1.044 1.044 0 0 1-.652.228 1.043 1.043 0 0 1-.652-.228.676.676 0 0 0-.795.861.677.677 0 0 0 0 1.198.677.677 0 0 0 .847.847.677.677 0 0 0 1.198 0 .677.677 0 0 0 .847-.847.677.677 0 0 0 .361-.599z"
        fill="#fe0364" />
    <path
        d="M4.199 16.769a.678.678 0 0 0-.361-.599.677.677 0 0 0-.795-.861 1.044 1.044 0 0 1-.55.223.677.677 0 0 1 .156.521.2.2 0 0 0 .076.183.677.677 0 0 1 0 1.068.202.202 0 0 0-.077.181.676.676 0 0 1-.854.737.679.679 0 0 0 1.196-.005.677.677 0 0 0 .847-.847.677.677 0 0 0 .361-.599z"
        fill="#e30256" />
    <path
        d="m3.002 13.693-.033-.01-.016.03a.636.636 0 0 1-.563.339.636.636 0 0 1-.563-.339l-.016-.03-.033.01a.638.638 0 0 1-.163.027 1.09 1.09 0 1 0 1.55 0 .639.639 0 0 1-.163-.027z"
        fill="#ffe177" />
    <path
        d="M3.165 13.72a.638.638 0 0 1-.163-.027l-.033-.01-.016.03a.637.637 0 0 1-.39.316 1.085 1.085 0 0 1 .101.458c0 .458-.282.849-.682 1.011a1.086 1.086 0 0 0 .408.079 1.09 1.09 0 0 0 .775-1.857z"
        fill="#ffd15b" />
    <path
        d="M4.199 12.285a.678.678 0 0 0-.361-.599.677.677 0 0 0-.795-.861 1.044 1.044 0 0 1-.652.228 1.043 1.043 0 0 1-.652-.228.676.676 0 0 0-.795.861.677.677 0 0 0 0 1.198.677.677 0 0 0 .847.847.677.677 0 0 0 1.198 0 .677.677 0 0 0 .847-.847.677.677 0 0 0 .361-.599z"
        fill="#fe0364" />
    <path
        d="M4.199 12.285a.678.678 0 0 0-.361-.599.677.677 0 0 0-.795-.861 1.044 1.044 0 0 1-.55.223.677.677 0 0 1 .156.521.2.2 0 0 0 .076.183.677.677 0 0 1 0 1.068.202.202 0 0 0-.077.181.676.676 0 0 1-.854.737.679.679 0 0 0 1.196-.005.677.677 0 0 0 .847-.847.677.677 0 0 0 .361-.599z"
        fill="#e30256" />
    <path
        d="m3.002 9.21-.033-.01-.016.03a.636.636 0 0 1-.563.339.636.636 0 0 1-.563-.339l-.016-.03-.033.01a.638.638 0 0 1-.163.027 1.09 1.09 0 1 0 1.55 0 .638.638 0 0 1-.163-.027z"
        fill="#ffe177" />
    <path
        d="M3.165 9.237a.638.638 0 0 1-.163-.027l-.033-.01-.016.03a.637.637 0 0 1-.39.316 1.085 1.085 0 0 1 .101.458c0 .458-.282.849-.682 1.011a1.086 1.086 0 0 0 .408.079 1.09 1.09 0 0 0 .775-1.857z"
        fill="#ffd15b" />
    <path
        d="M4.199 7.802a.678.678 0 0 0-.361-.599.677.677 0 0 0-.795-.861 1.044 1.044 0 0 1-.652.228 1.043 1.043 0 0 1-.652-.228.676.676 0 0 0-.795.861.677.677 0 0 0 0 1.198.677.677 0 0 0 .847.847.677.677 0 0 0 1.198 0 .677.677 0 0 0 .847-.847.677.677 0 0 0 .361-.599z"
        fill="#fe0364" />
    <path
        d="M4.199 7.802a.678.678 0 0 0-.361-.599.677.677 0 0 0-.795-.861 1.044 1.044 0 0 1-.55.223.677.677 0 0 1 .156.521.2.2 0 0 0 .076.183.677.677 0 0 1 0 1.068.202.202 0 0 0-.077.181.676.676 0 0 1-.854.737.679.679 0 0 0 1.196-.005.677.677 0 0 0 .847-.847.677.677 0 0 0 .361-.599z"
        fill="#e30256" />
    <path fill="#ffe177" d="M3.481 5.52a1.09 1.09 0 0 1-1.09 1.09 1.09 1.09 0 0 1-1.09-1.09 1.09 1.09 0 0 1 2.18 0z" />
    <path
        d="M2.391 4.431c-.144 0-.282.028-.408.079a1.09 1.09 0 0 1 0 2.022 1.086 1.086 0 0 0 .408.079 1.09 1.09 0 1 0 0-2.18z"
        fill="#ffd15b" />
    <path
        d="M6.996 7.374v1.471a.769.769 0 0 1 .293-.058c.102 0 .201.02.293.057V7.418a.769.769 0 0 1-.238.038.768.768 0 0 1-.348-.082zm.348 5.16a.769.769 0 0 1-.348-.082v1.281a.646.646 0 0 1 .32-.085c.095 0 .184.021.266.057v-1.209a.768.768 0 0 1-.238.038zm-.348-8.766a.769.769 0 0 1 .293-.058c.102 0 .201.02.293.057V1.97h-.586zm5.715 8.766a.778.778 0 0 1-.348-.082v1.281a.646.646 0 0 1 .32-.085c.095 0 .184.021.266.057v-1.209a.77.77 0 0 1-.238.038zm-.347-5.16v1.471a.769.769 0 0 1 .293-.058c.102 0 .201.02.293.057V7.418a.77.77 0 0 1-.238.038.768.768 0 0 1-.348-.082zm0-3.606a.769.769 0 0 1 .293-.058c.102 0 .201.02.293.057V1.97h-.586z"
        fill="#6bd9e7" />
    <path
        d="M9.229 5.556a.808.808 0 0 0-.349-.666.81.81 0 0 0-.948-.902.81.81 0 0 0-1.308.032.81.81 0 0 0-.902.948.811.811 0 0 0 .032 1.309.81.81 0 0 0 .948.902.81.81 0 0 0 1.308-.032.81.81 0 0 0 .902-.948.808.808 0 0 0 .317-.642z"
        fill="#fe9738" />
    <path
        d="M9.229 5.556a.808.808 0 0 0-.349-.666.81.81 0 0 0-.948-.902.811.811 0 0 0-.643-.317.806.806 0 0 0-.486.163 1.881 1.881 0 0 1 .036 3.486.806.806 0 0 0 .505.177c.276 0 .52-.138.666-.349a.81.81 0 0 0 .902-.948.808.808 0 0 0 .317-.643z"
        fill="#fe860a" />
    <path fill="#ffe177" d="M8.006 5.583a.69.69 0 0 1-.69.69.69.69 0 0 1-.69-.69.69.69 0 0 1 1.38 0z" />
    <path
        d="M9.229 10.634a.808.808 0 0 0-.349-.666.81.81 0 0 0-.948-.902.81.81 0 0 0-1.308.032.81.81 0 0 0-.902.948.811.811 0 0 0 .032 1.309.81.81 0 0 0 .948.902.81.81 0 0 0 1.308-.032.81.81 0 0 0 .902-.948.808.808 0 0 0 .317-.642z"
        fill="#fe9738" />
    <path
        d="M9.229 10.634a.808.808 0 0 0-.349-.666.81.81 0 0 0-.948-.902.811.811 0 0 0-.643-.317.806.806 0 0 0-.486.163 1.881 1.881 0 0 1 .036 3.486.806.806 0 0 0 .505.177c.276 0 .52-.138.666-.349a.81.81 0 0 0 .902-.948.808.808 0 0 0 .317-.643z"
        fill="#fe860a" />
    <path fill="#ffe177" d="M8.006 10.661a.69.69 0 0 1-.69.69.69.69 0 0 1-.69-.69.69.69 0 0 1 1.38 0z" />
    <path
        d="M14.596 5.556a.808.808 0 0 0-.349-.666.81.81 0 0 0-.948-.902.81.81 0 0 0-1.308.032.81.81 0 0 0-.902.948.811.811 0 0 0 .032 1.309.81.81 0 0 0 .948.902.81.81 0 0 0 1.308-.032.81.81 0 0 0 .902-.948.808.808 0 0 0 .317-.642z"
        fill="#fe9738" />
    <path
        d="M14.596 5.556a.808.808 0 0 0-.349-.666.81.81 0 0 0-.948-.902.811.811 0 0 0-.643-.317.806.806 0 0 0-.486.163 1.881 1.881 0 0 1 .036 3.486.806.806 0 0 0 .505.177c.276 0 .52-.138.666-.349a.81.81 0 0 0 .902-.948.808.808 0 0 0 .317-.642z"
        fill="#fe860a" />
    <path fill="#ffe177" d="M13.374 5.583a.69.69 0 0 1-.69.69.69.69 0 0 1-.69-.69.69.69 0 0 1 1.38 0z" />
    <path
        d="M12.684 4.893a.692.692 0 0 0-.32.079.688.688 0 0 1 0 1.222.686.686 0 0 0 .32.079.69.69 0 0 0 0-1.38zm-5.368 0a.692.692 0 0 0-.32.079.688.688 0 0 1 0 1.222.686.686 0 0 0 .32.079.69.69 0 0 0 0-1.38zm0 5.078a.692.692 0 0 0-.32.079.688.688 0 0 1 0 1.222.686.686 0 0 0 .32.079.69.69 0 0 0 0-1.38z"
        fill="#ffd15b" />
    <path
        d="M14.596 10.634a.808.808 0 0 0-.349-.666.81.81 0 0 0-.948-.902.81.81 0 0 0-1.308.032.81.81 0 0 0-.902.948.811.811 0 0 0 .032 1.309.81.81 0 0 0 .948.902.81.81 0 0 0 1.308-.032.81.81 0 0 0 .902-.948.808.808 0 0 0 .317-.642z"
        fill="#fe9738" />
    <path
        d="M14.596 10.634a.808.808 0 0 0-.349-.666.81.81 0 0 0-.948-.902.811.811 0 0 0-.643-.317.806.806 0 0 0-.486.163 1.884 1.884 0 0 1 .036 3.485.806.806 0 0 0 .505.177c.276 0 .52-.138.666-.349a.81.81 0 0 0 .902-.948.808.808 0 0 0 .317-.642z"
        fill="#fe860a" />
    <path fill="#ffe177" d="M13.374 10.661a.69.69 0 0 1-.69.69.69.69 0 0 1-.69-.69.69.69 0 0 1 1.38 0z" />
    <path d="M12.684 9.971a.692.692 0 0 0-.32.079.688.688 0 0 1 0 1.222.686.686 0 0 0 .32.079.69.69 0 0 0 0-1.38z"
        fill="#ffd15b" />
    <path fill="#ffe177" d="M8.006 14.299a.69.69 0 0 1-.69.69.69.69 0 0 1-.69-.69.69.69 0 0 1 1.38 0z" />
    <path d="M7.316 13.609a.686.686 0 0 0-.344.093.69.69 0 0 1 0 1.194.686.686 0 0 0 .344.093.69.69 0 0 0 0-1.38z"
        fill="#ffd15b" />
    <path fill="#ffe177" d="M13.374 14.299a.69.69 0 0 1-.69.69.69.69 0 0 1-.69-.69.69.69 0 0 1 1.38 0z" />
    <path d="M12.684 13.609a.686.686 0 0 0-.344.093.69.69 0 0 1 0 1.194.686.686 0 0 0 .344.093.69.69 0 0 0 0-1.38z"
        fill="#ffd15b" />
    <path d="M19.707 2.009H.293a.293.293 0 1 1 0-.586h19.414a.293.293 0 1 1 0 .586z" fill="#a6e7f0" />
</svg>