<svg viewBox="0 0 20 20" xmlns="http://www.w3.org/2000/svg" width="20" height="20">
    <path
        d="m11.319 13.804-2.562-2.561-2.986-2.986-1.059-.231a33.324 33.324 0 0 0-2.801 4.104l.632.356-.533.886.119.357 2.072 2.072 2.072 2.072.357.119.886-.533.356.632a33.324 33.324 0 0 0 4.104-2.801z"
        fill="#cc6e5c" />
    <path
        d="m6.628 17.991.886-.533.356.632a33.324 33.324 0 0 0 4.104-2.801l-.655-1.484-2.562-2.561-4.558 4.558 2.072 2.072z"
        fill="#a65342" />
    <path
        d="m10.119 13.142-.775-.775-3.136 1.425 1.425-3.136-.775-.775-4.947 2.249c-.088.154-.16.285-.197.356l.295.886 3.912-1.778-1.853 4.075.132.132.132.132 4.075-1.853-1.778 3.912.886.295c.071-.036.202-.109.356-.197z"
        fill="#485c66" />
    <path
        d="m8.406 14.08-1.778 3.912.886.295c.071-.036.202-.109.356-.197l2.249-4.947-.775-.775-3.136 1.425L4.2 15.801l.132.132z"
        fill="#36464d" />
    <path
        d="m18.089 7.871-.632-.357.534-.885-.119-.358L15.8 4.199l-2.072-2.072-.353-.118-.89.532c-.071.036-.2-.721-.353-.634A33.255 33.255 0 0 0 8.025 4.71l.545 1.374 2.672 2.672 2.588 2.588 1.458.629a33.449 33.449 0 0 0 2.801-4.103z"
        fill="#cc6e5c" />
    <path
        d="M15.289 11.974a33.449 33.449 0 0 0 2.801-4.103l-.632-.357.534-.885-.119-.358-2.072-2.072-4.558 4.558 2.588 2.588z"
        fill="#a65342" />
    <path
        d="m18.286 7.514-.295-.885-3.912 1.778 1.853-4.075L15.8 4.2l-.128-.128-4.089 1.837 1.793-3.897-.89-.297c-.071.036-.2.108-.353.195L9.865 6.839l.772.78L13.796 6.2l-.004.009-1.425 3.136.775.775 4.947-2.248a9.08 9.08 0 0 0 .197-.357z"
        fill="#485c66" />
    <path
        d="m13.142 10.119 4.947-2.248a9.08 9.08 0 0 0 .197-.357l-.295-.885-3.912 1.778 1.853-4.075L15.8 4.2l-2.008 2.008-1.425 3.136z"
        fill="#36464d" />
    <path d="M17.1 2.9 14.2 0l-1.714 1.714 2.9 2.9 2.9 2.9L20 5.8z" fill="#fff5e6" />
    <path d="m15.384 4.615 1.713-1.713 2.9 2.9-1.713 1.713z" fill="#f9d9ba" />
    <path d="M1.714 12.486 0 14.2l2.9 2.9L5.8 20l1.714-1.714-2.9-2.9z" fill="#fff5e6" />
    <path d="m2.898 17.099 1.713-1.713 2.9 2.9-1.713 1.713z" fill="#f9d9ba" />
    <path
        d="m15.289 11.974-3.631-3.631-3.631-3.631a21.971 21.971 0 0 0-1.755 1.56c-.55.55-1.074 1.151-1.56 1.755l3.631 3.631 3.631 3.631c.604-.486 1.205-1.01 1.755-1.56s1.074-1.151 1.56-1.755z"
        fill="#ffdf40" />
    <path
        d="M13.729 13.729c.55-.55 1.074-1.151 1.56-1.755l-3.631-3.631-3.315 3.315 3.631 3.631a21.971 21.971 0 0 0 1.755-1.56z"
        fill="#ffbe40" />
    <path d="M10.414 9.586 10 9.171 9.171 10l.414.414.415.415.829-.829z" fill="#ffbe40" />
    <path d="m10.826 11.657.829-.829.829.829-.829.829z" fill="#ff9f40" />
    <path d="m7.512 8.343.829-.829.829.829-.829.829z" fill="#ffbe40" />
    <path d="m9.584 10.414.829-.829.413.415-.829.829z" fill="#ff9f40" />
</svg>