<svg width="36" height="28" fill="none" xmlns="http://www.w3.org/2000/svg">
    <path
        d="M17.86,0c0,0 -0.297,0.748 -0.85,1.189c-0.011,-0.006 0.85,1.194 0.85,2.671c0,-1.477 0.861,-2.677 0.851,-2.671c-0.553,-0.441 -0.851,-1.189 -0.851,-1.189"
        style="fill:#c4c4c4;fill-rule:nonzero;" />
    <path
        d="M18.182,2.759c0.159,-0.324 0.398,-0.607 0.749,-0.724c0.126,-0.042 0.28,-0.053 0.377,0.038c0.113,0.106 0.089,0.301 -0.004,0.424c-0.094,0.123 -0.237,0.195 -0.37,0.272c-0.247,0.144 -0.476,0.325 -0.651,0.553c-0.171,0.222 -0.268,0.489 -0.316,0.764c-0.083,-0.445 0.018,-0.925 0.215,-1.327"
        style="fill:#c4c4c4;fill-rule:nonzero;" />
    <path
        d="M18.94,3.088c0.307,-0.182 0.662,-0.286 1.018,-0.189c0.128,0.034 0.263,0.11 0.295,0.241c0.037,0.15 -0.088,0.301 -0.233,0.352c-0.145,0.051 -0.304,0.031 -0.457,0.022c-0.284,-0.016 -0.574,0.008 -0.844,0.101c-0.263,0.091 -0.489,0.26 -0.678,0.464c0.172,-0.418 0.516,-0.764 0.899,-0.991"
        style="fill:#c4c4c4;fill-rule:nonzero;" />
    <path
        d="M16.773,3.097c-0.307,-0.183 -0.661,-0.287 -1.018,-0.19c-0.128,0.035 -0.263,0.111 -0.295,0.241c-0.037,0.151 0.089,0.302 0.233,0.353c0.145,0.051 0.304,0.031 0.457,0.022c0.284,-0.016 0.574,0.008 0.844,0.101c0.263,0.09 0.489,0.26 0.678,0.464c-0.172,-0.419 -0.516,-0.764 -0.899,-0.991"
        style="fill:#c4c4c4;fill-rule:nonzero;" />
    <path
        d="M17.539,2.759c-0.159,-0.324 -0.399,-0.607 -0.749,-0.724c-0.126,-0.042 -0.28,-0.053 -0.377,0.038c-0.113,0.106 -0.09,0.301 0.004,0.424c0.093,0.123 0.236,0.195 0.369,0.272c0.247,0.144 0.477,0.325 0.652,0.553c0.171,0.222 0.268,0.489 0.315,0.764c0.083,-0.445 -0.017,-0.925 -0.214,-1.327"
        style="fill:#c4c4c4;fill-rule:nonzero;" />
    <path
        d="M22.727,11.138c0.154,0.192 0.237,0.444 0.237,0.696c0,0.588 -0.486,1.188 -1.85,1.188l-0.012,0l0,-6.359c0,-0.84 0.178,-1.547 0.759,-1.679l0,-0.119l-3.648,0l-0,0.119c0.58,0.132 0.758,0.839 0.758,1.679l0,4.799c0,0.84 -0.178,1.548 -0.758,1.679l-0,0.12l4.135,-0c1.741,-0 2.487,-0.995 2.487,-2.039c-0,-0.635 -0.273,-1.271 -0.746,-1.727l-1.362,1.643Z"
        style="fill:#c4c4c4;fill-rule:nonzero;" />
    <path
        d="M12.986,11.138c-0.154,0.192 -0.237,0.444 -0.237,0.696c0,0.588 0.486,1.188 1.85,1.188l0.012,0l-0,-6.359c-0,-0.84 -0.178,-1.547 -0.759,-1.679l-0,-0.119l3.649,0l-0,0.119c-0.581,0.132 -0.759,0.839 -0.759,1.679l0,4.799c0,0.84 0.178,1.548 0.759,1.679l-0,0.12l-4.135,-0c-1.742,-0 -2.487,-0.995 -2.487,-2.039c-0,-0.635 0.272,-1.271 0.745,-1.727l1.362,1.643Z"
        style="fill:#c4c4c4;fill-rule:nonzero;" />
    <path
        d="M22.727,16.825c0.154,-0.192 0.237,-0.444 0.237,-0.696c0,-0.588 -0.486,-1.187 -1.85,-1.187l-0.012,-0l0,6.358c0,0.84 0.178,1.548 0.759,1.68l0,0.119l-3.648,-0l-0,-0.119c0.58,-0.132 0.758,-0.84 0.758,-1.68l0,-4.799c0,-0.84 -0.178,-1.547 -0.758,-1.679l-0,-0.119l4.135,0c1.741,0 2.487,0.994 2.487,2.038c-0,0.636 -0.273,1.272 -0.746,1.728l-1.362,-1.644Z"
        style="fill:#c4c4c4;fill-rule:nonzero;" />
    <path
        d="M12.986,16.825c-0.154,-0.192 -0.237,-0.444 -0.237,-0.696c0,-0.588 0.486,-1.187 1.85,-1.187l0.012,-0l-0,6.358c-0,0.84 -0.178,1.548 -0.759,1.68l-0,0.119l3.649,-0l-0,-0.119c-0.581,-0.132 -0.759,-0.84 -0.759,-1.68l0,-4.799c0,-0.84 0.178,-1.547 0.759,-1.679l-0,-0.119l-4.135,0c-1.742,0 -2.487,0.994 -2.487,2.038c-0,0.636 0.272,1.272 0.745,1.728l1.362,-1.644Z"
        style="fill:#c4c4c4;fill-rule:nonzero;" />
    <path
        d="M17.86,28c0,0 -0.297,-0.748 -0.85,-1.189c-0.011,0.006 0.85,-1.194 0.85,-2.671c0,1.477 0.861,2.677 0.851,2.671c-0.553,0.441 -0.851,1.189 -0.851,1.189"
        style="fill:#c4c4c4;fill-rule:nonzero;" />
    <path
        d="M18.182,25.241c0.159,0.324 0.398,0.607 0.749,0.724c0.126,0.042 0.28,0.053 0.377,-0.038c0.113,-0.106 0.089,-0.301 -0.004,-0.424c-0.094,-0.123 -0.237,-0.195 -0.37,-0.272c-0.247,-0.144 -0.476,-0.325 -0.651,-0.553c-0.171,-0.222 -0.268,-0.489 -0.316,-0.764c-0.083,0.445 0.018,0.925 0.215,1.327"
        style="fill:#c4c4c4;fill-rule:nonzero;" />
    <path
        d="M18.94,24.912c0.307,0.182 0.662,0.286 1.018,0.189c0.128,-0.034 0.263,-0.11 0.295,-0.241c0.037,-0.15 -0.088,-0.301 -0.233,-0.352c-0.145,-0.051 -0.304,-0.031 -0.457,-0.022c-0.284,0.016 -0.574,-0.008 -0.844,-0.101c-0.263,-0.091 -0.489,-0.26 -0.678,-0.464c0.172,0.418 0.516,0.764 0.899,0.991"
        style="fill:#c4c4c4;fill-rule:nonzero;" />
    <path
        d="M16.773,24.903c-0.307,0.183 -0.661,0.287 -1.018,0.19c-0.128,-0.035 -0.263,-0.111 -0.295,-0.241c-0.037,-0.151 0.089,-0.302 0.233,-0.353c0.145,-0.051 0.304,-0.031 0.457,-0.022c0.284,0.016 0.574,-0.008 0.844,-0.101c0.263,-0.09 0.489,-0.26 0.678,-0.464c-0.172,0.419 -0.516,0.764 -0.899,0.991"
        style="fill:#c4c4c4;fill-rule:nonzero;" />
    <path
        d="M17.539,25.241c-0.159,0.324 -0.399,0.607 -0.749,0.724c-0.126,0.042 -0.28,0.053 -0.377,-0.038c-0.113,-0.106 -0.09,-0.301 0.004,-0.424c0.093,-0.123 0.236,-0.195 0.369,-0.272c0.247,-0.144 0.477,-0.325 0.652,-0.553c0.171,-0.222 0.268,-0.489 0.315,-0.764c0.083,0.445 -0.017,0.925 -0.214,1.327"
        style="fill:#c4c4c4;fill-rule:nonzero;" />
    <path
        d="M29.616,13.986c0,-0 -0.739,-0.301 -1.174,-0.861c0.006,-0.011 -1.18,0.861 -2.638,0.861c1.458,-0 2.644,0.871 2.638,0.861c0.435,-0.56 1.174,-0.861 1.174,-0.861"
        style="fill:#c4c4c4;fill-rule:nonzero;" />
    <path
        d="M26.891,14.311c0.32,0.161 0.6,0.404 0.715,0.758c0.042,0.128 0.053,0.284 -0.037,0.382c-0.105,0.114 -0.298,0.091 -0.419,-0.004c-0.122,-0.094 -0.193,-0.239 -0.269,-0.374c-0.143,-0.25 -0.321,-0.482 -0.546,-0.66c-0.219,-0.173 -0.483,-0.271 -0.755,-0.319c0.44,-0.084 0.914,0.018 1.311,0.217"
        style="fill:#c4c4c4;fill-rule:nonzero;" />
    <path
        d="M26.566,15.078c0.18,0.312 0.283,0.671 0.187,1.031c-0.034,0.13 -0.109,0.267 -0.238,0.299c-0.149,0.037 -0.298,-0.09 -0.348,-0.236c-0.051,-0.147 -0.031,-0.307 -0.022,-0.462c0.016,-0.288 -0.008,-0.582 -0.1,-0.855c-0.089,-0.266 -0.256,-0.495 -0.458,-0.686c0.413,0.174 0.755,0.522 0.979,0.909"
        style="fill:#c4c4c4;fill-rule:nonzero;" />
    <path
        d="M26.557,12.885c0.181,-0.311 0.283,-0.67 0.188,-1.03c-0.035,-0.13 -0.11,-0.267 -0.239,-0.299c-0.148,-0.038 -0.297,0.089 -0.348,0.236c-0.05,0.147 -0.031,0.307 -0.022,0.462c0.017,0.288 -0.007,0.581 -0.099,0.855c-0.09,0.266 -0.257,0.495 -0.459,0.686c0.414,-0.174 0.755,-0.522 0.979,-0.91"
        style="fill:#c4c4c4;fill-rule:nonzero;" />
    <path
        d="M26.891,13.66c0.32,-0.16 0.6,-0.403 0.715,-0.758c0.042,-0.127 0.053,-0.283 -0.037,-0.382c-0.105,-0.114 -0.298,-0.09 -0.419,0.004c-0.122,0.095 -0.193,0.24 -0.269,0.374c-0.143,0.251 -0.321,0.482 -0.546,0.66c-0.219,0.173 -0.483,0.272 -0.755,0.32c0.44,0.083 0.914,-0.018 1.311,-0.218"
        style="fill:#c4c4c4;fill-rule:nonzero;" />
    <path
        d="M6.384,13.986c-0,-0 0.739,-0.301 1.174,-0.861c-0.006,-0.011 1.18,0.861 2.638,0.861c-1.458,-0 -2.644,0.871 -2.638,0.861c-0.435,-0.56 -1.174,-0.861 -1.174,-0.861"
        style="fill:#c4c4c4;fill-rule:nonzero;" />
    <path
        d="M9.109,14.311c-0.32,0.161 -0.6,0.404 -0.715,0.758c-0.042,0.128 -0.053,0.284 0.037,0.382c0.105,0.114 0.298,0.091 0.419,-0.004c0.122,-0.094 0.193,-0.239 0.269,-0.374c0.143,-0.25 0.321,-0.482 0.546,-0.66c0.219,-0.173 0.483,-0.271 0.755,-0.319c-0.44,-0.084 -0.914,0.018 -1.311,0.217"
        style="fill:#c4c4c4;fill-rule:nonzero;" />
    <path
        d="M9.434,15.078c-0.18,0.312 -0.283,0.671 -0.187,1.031c0.034,0.13 0.109,0.267 0.238,0.299c0.149,0.037 0.298,-0.09 0.348,-0.236c0.051,-0.147 0.031,-0.307 0.022,-0.462c-0.016,-0.288 0.008,-0.582 0.1,-0.855c0.089,-0.266 0.256,-0.495 0.458,-0.686c-0.413,0.174 -0.755,0.522 -0.979,0.909"
        style="fill:#c4c4c4;fill-rule:nonzero;" />
    <path
        d="M9.443,12.885c-0.181,-0.311 -0.283,-0.67 -0.188,-1.03c0.035,-0.13 0.11,-0.267 0.239,-0.299c0.148,-0.038 0.297,0.089 0.348,0.236c0.05,0.147 0.031,0.307 0.022,0.462c-0.017,0.288 0.007,0.581 0.099,0.855c0.09,0.266 0.257,0.495 0.459,0.686c-0.414,-0.174 -0.755,-0.522 -0.979,-0.91"
        style="fill:#c4c4c4;fill-rule:nonzero;" />
    <path
        d="M9.109,13.66c-0.32,-0.16 -0.6,-0.403 -0.715,-0.758c-0.042,-0.127 -0.053,-0.283 0.037,-0.382c0.105,-0.114 0.298,-0.09 0.419,0.004c0.122,0.095 0.193,0.24 0.269,0.374c0.143,0.251 0.321,0.482 0.546,0.66c0.219,0.173 0.483,0.272 0.755,0.32c-0.44,0.083 -0.914,-0.018 -1.311,-0.218"
        style="fill:#c4c4c4;fill-rule:nonzero;" />
</svg>