<svg width="178" height="29" viewBox="0 0 178 29" fill="none" xmlns="http://www.w3.org/2000/svg">
    <path
        d="M16.605 2.967s-0.267 0.616 -0.763 0.979c-0.009 -0.005 0.763 0.983 0.763 2.199 0 -1.216 0.772 -2.204 0.763 -2.199 -0.497 -0.362 -0.763 -0.979 -0.763 -0.979"
        style="fill:#fff;fill-rule:nonzero" />
    <path
        d="M16.893 5.239c0.142 -0.266 0.357 -0.5 0.672 -0.596 0.113 -0.035 0.251 -0.044 0.338 0.031 0.101 0.087 0.08 0.248 -0.004 0.349 -0.084 0.101 -0.212 0.16 -0.332 0.224 -0.222 0.119 -0.427 0.268 -0.585 0.455 -0.154 0.183 -0.241 0.403 -0.283 0.629 -0.074 -0.367 0.016 -0.762 0.193 -1.093"
        style="fill:#fff;fill-rule:nonzero" />
    <path
        d="M17.573 5.51c0.276 -0.15 0.594 -0.236 0.914 -0.156 0.115 0.029 0.236 0.091 0.265 0.198 0.033 0.124 -0.079 0.248 -0.209 0.29 -0.13 0.042 -0.272 0.026 -0.409 0.018 -0.255 -0.014 -0.515 0.006 -0.757 0.083 -0.236 0.075 -0.439 0.214 -0.608 0.382 0.154 -0.345 0.463 -0.629 0.806 -0.816m-1.944 0.007c-0.276 -0.15 -0.594 -0.236 -0.914 -0.156 -0.115 0.029 -0.236 0.091 -0.265 0.198 -0.033 0.124 0.079 0.248 0.209 0.29 0.13 0.042 0.272 0.026 0.409 0.018 0.255 -0.014 0.515 0.006 0.757 0.083 0.236 0.075 0.439 0.214 0.608 0.382 -0.154 -0.345 -0.463 -0.629 -0.806 -0.816"
        style="fill:#fff;fill-rule:nonzero" />
    <path
        d="M16.317 5.239c-0.142 -0.266 -0.357 -0.5 -0.672 -0.596 -0.113 -0.035 -0.251 -0.044 -0.339 0.031 -0.101 0.087 -0.08 0.248 0.004 0.349 0.084 0.101 0.212 0.16 0.332 0.224 0.222 0.119 0.427 0.268 0.585 0.455 0.153 0.183 0.241 0.403 0.283 0.629 0.074 -0.367 -0.016 -0.762 -0.193 -1.093M20.971 12.138c0.138 0.158 0.213 0.366 0.213 0.573 0 0.484 -0.436 0.978 -1.66 0.978h-0.011V8.453c0 -0.692 0.16 -1.274 0.681 -1.383v-0.098H16.921v0.098c0.521 0.109 0.68 0.691 0.68 1.383v3.951c0 0.691 -0.159 1.274 -0.68 1.382v0.098H20.631c1.562 0 2.232 -0.819 2.232 -1.678 0 -0.523 -0.244 -1.047 -0.669 -1.422l-1.222 1.353Zm-8.74 0a0.876 0.876 0 0 0 -0.213 0.573c0 0.484 0.436 0.978 1.66 0.978h0.011V8.453c0 -0.692 -0.16 -1.274 -0.681 -1.383v-0.098h3.274v0.098c-0.521 0.109 -0.681 0.691 -0.681 1.383v3.951c0 0.691 0.16 1.274 0.681 1.382v0.098H12.573c-1.562 0 -2.232 -0.819 -2.232 -1.678 0 -0.523 0.244 -1.047 0.669 -1.422l1.222 1.353ZM20.971 16.82a0.877 0.877 0 0 0 0.213 -0.573c0 -0.484 -0.436 -0.978 -1.66 -0.978h-0.011v5.235c0 0.692 0.16 1.274 0.681 1.383v0.097H16.921v-0.097c0.521 -0.109 0.68 -0.691 0.68 -1.383v-3.951c0 -0.692 -0.159 -1.274 -0.68 -1.382v-0.098H20.631c1.562 0 2.232 0.819 2.232 1.678 0 0.524 -0.244 1.047 -0.669 1.423l-1.222 -1.353Zm-8.74 0a0.877 0.877 0 0 1 -0.213 -0.573c0 -0.484 0.436 -0.978 1.66 -0.978h0.011v5.235c0 0.692 -0.16 1.274 -0.681 1.383v0.097h3.274v-0.097c-0.521 -0.109 -0.681 -0.691 -0.681 -1.383v-3.951c0 -0.692 0.16 -1.274 0.681 -1.382v-0.098H12.573c-1.562 0 -2.232 0.819 -2.232 1.678 0 0.524 0.244 1.047 0.669 1.423l1.222 -1.353Zm4.373 9.2s-0.267 -0.616 -0.763 -0.979c-0.009 0.005 0.763 -0.984 0.763 -2.199 0 1.216 0.772 2.204 0.763 2.199 -0.497 0.362 -0.763 0.979 -0.763 0.979"
        style="fill:#fff;fill-rule:nonzero" />
    <path
        d="M16.893 23.748c0.142 0.267 0.357 0.5 0.672 0.596 0.113 0.035 0.251 0.044 0.338 -0.031 0.101 -0.087 0.08 -0.248 -0.004 -0.35 -0.084 -0.101 -0.212 -0.16 -0.332 -0.224 -0.222 -0.119 -0.427 -0.268 -0.585 -0.455 -0.154 -0.183 -0.241 -0.403 -0.283 -0.629 -0.074 0.367 0.016 0.762 0.193 1.093"
        style="fill:#fff;fill-rule:nonzero" />
    <path
        d="M17.573 23.477c0.276 0.15 0.594 0.236 0.914 0.156 0.115 -0.029 0.236 -0.091 0.265 -0.198 0.033 -0.124 -0.079 -0.248 -0.209 -0.29 -0.13 -0.042 -0.272 -0.026 -0.409 -0.018 -0.255 0.014 -0.515 -0.006 -0.757 -0.083 -0.236 -0.075 -0.439 -0.214 -0.608 -0.382 0.154 0.345 0.463 0.629 0.806 0.816m-1.944 -0.007c-0.276 0.15 -0.594 0.236 -0.914 0.156 -0.115 -0.029 -0.236 -0.091 -0.265 -0.198 -0.033 -0.124 0.079 -0.248 0.209 -0.29 0.13 -0.042 0.272 -0.026 0.409 -0.018 0.255 0.014 0.515 -0.006 0.757 -0.083 0.236 -0.074 0.439 -0.214 0.608 -0.382 -0.154 0.345 -0.463 0.629 -0.806 0.816"
        style="fill:#fff;fill-rule:nonzero" />
    <path
        d="M16.317 23.748c-0.142 0.267 -0.357 0.5 -0.672 0.596 -0.113 0.035 -0.251 0.044 -0.339 -0.031 -0.101 -0.087 -0.08 -0.248 0.004 -0.35 0.084 -0.101 0.212 -0.16 0.332 -0.224 0.222 -0.119 0.427 -0.268 0.585 -0.455 0.153 -0.183 0.241 -0.403 0.283 -0.629 0.074 0.367 -0.016 0.762 -0.193 1.093m10.836 -9.266s-0.663 -0.248 -1.053 -0.709c0.005 -0.008 -1.059 0.709 -2.367 0.709 1.309 0 2.373 0.718 2.367 0.709 0.39 -0.461 1.053 -0.709 1.053 -0.709"
        style="fill:#fff;fill-rule:nonzero" />
    <path
        d="M24.707 14.75c0.287 0.132 0.538 0.332 0.641 0.624 0.037 0.105 0.047 0.233 -0.034 0.314 -0.094 0.094 -0.267 0.074 -0.376 -0.004 -0.109 -0.078 -0.172 -0.197 -0.241 -0.308 -0.128 -0.206 -0.288 -0.397 -0.49 -0.543 -0.196 -0.142 -0.433 -0.224 -0.677 -0.263 0.395 -0.069 0.82 0.015 1.176 0.179"
        style="fill:#fff;fill-rule:nonzero" />
    <path
        d="M24.416 15.381c0.162 0.256 0.254 0.552 0.168 0.848 -0.031 0.107 -0.098 0.219 -0.214 0.246 -0.134 0.031 -0.267 -0.074 -0.312 -0.194 -0.045 -0.121 -0.028 -0.253 -0.02 -0.38 0.015 -0.237 -0.007 -0.479 -0.089 -0.704 -0.08 -0.219 -0.23 -0.408 -0.411 -0.565 0.371 0.143 0.677 0.43 0.878 0.749m-0.008 -1.806c0.162 -0.256 0.254 -0.552 0.168 -0.848 -0.031 -0.107 -0.098 -0.219 -0.214 -0.246 -0.134 -0.031 -0.267 0.073 -0.313 0.194 -0.045 0.121 -0.028 0.253 -0.02 0.38 0.015 0.237 -0.007 0.479 -0.089 0.704 -0.08 0.219 -0.23 0.408 -0.411 0.565 0.371 -0.143 0.677 -0.43 0.878 -0.749"
        style="fill:#fff;fill-rule:nonzero" />
    <path
        d="M24.707 14.214c0.287 -0.132 0.538 -0.332 0.641 -0.624 0.037 -0.105 0.047 -0.233 -0.034 -0.314 -0.094 -0.094 -0.267 -0.074 -0.376 0.003 -0.109 0.078 -0.172 0.197 -0.241 0.308 -0.128 0.206 -0.288 0.397 -0.49 0.543 -0.196 0.143 -0.433 0.224 -0.677 0.263 0.395 0.069 0.82 -0.015 1.176 -0.179m-18.399 0.268s0.663 -0.248 1.053 -0.709c-0.005 -0.008 1.059 0.709 2.367 0.709 -1.309 0 -2.373 0.718 -2.367 0.709 -0.39 -0.461 -1.053 -0.709 -1.053 -0.709"
        style="fill:#fff;fill-rule:nonzero" />
    <path
        d="M8.753 14.75c-0.287 0.132 -0.538 0.332 -0.641 0.624 -0.037 0.105 -0.047 0.233 0.034 0.314 0.094 0.094 0.267 0.074 0.376 -0.004 0.109 -0.078 0.172 -0.197 0.241 -0.308 0.128 -0.206 0.288 -0.397 0.49 -0.543 0.196 -0.142 0.433 -0.224 0.677 -0.263 -0.395 -0.069 -0.82 0.015 -1.176 0.179"
        style="fill:#fff;fill-rule:nonzero" />
    <path
        d="M9.045 15.381c-0.162 0.256 -0.254 0.552 -0.168 0.848 0.031 0.107 0.098 0.219 0.214 0.246 0.134 0.031 0.267 -0.074 0.313 -0.194 0.045 -0.121 0.028 -0.253 0.02 -0.38 -0.015 -0.237 0.007 -0.479 0.089 -0.704 0.08 -0.219 0.23 -0.408 0.411 -0.565 -0.371 0.143 -0.677 0.43 -0.878 0.749m0.008 -1.806c-0.162 -0.256 -0.254 -0.552 -0.168 -0.848 0.031 -0.107 0.098 -0.219 0.214 -0.246 0.134 -0.031 0.267 0.073 0.313 0.194 0.045 0.121 0.028 0.253 0.02 0.38 -0.015 0.237 0.007 0.479 0.089 0.704 0.08 0.219 0.23 0.408 0.411 0.565 -0.371 -0.143 -0.677 -0.43 -0.878 -0.749"
        style="fill:#fff;fill-rule:nonzero" />
    <path
        d="M8.753 14.214c-0.287 -0.132 -0.538 -0.332 -0.641 -0.624 -0.037 -0.105 -0.047 -0.233 0.034 -0.314 0.094 -0.094 0.267 -0.074 0.376 0.003 0.109 0.078 0.172 0.197 0.241 0.308 0.128 0.206 0.288 0.397 0.49 0.543 0.196 0.143 0.433 0.224 0.677 0.263 -0.395 0.069 -0.82 -0.015 -1.176 -0.179m40.56 3.793v-1.358h-5.779V8.631h-1.511v9.376h7.291Zm3.722 0.14c1.581 0 2.687 -0.7 3.051 -1.875h0.098v1.735h1.385V13.781c0 -1.665 -0.994 -2.869 -3.204 -2.869 -2.211 0 -3.526 1.189 -3.526 2.771v0.056h1.497v-0.056c0 -1.022 0.63 -1.442 1.917 -1.442 1.329 0 1.833 0.406 1.833 1.553v0.406l-3.163 0.336c-1.371 0.154 -2.239 0.714 -2.239 1.791 0 1.147 0.91 1.819 2.351 1.819Zm-0.84 -1.917c0 -0.546 0.378 -0.728 1.162 -0.825l2.729 -0.308c0 1.371 -1.064 1.959 -2.645 1.959 -0.868 0 -1.246 -0.266 -1.246 -0.826Zm11.881 1.777 3.275 -6.955h-1.637l-2.477 5.486h-0.112l-2.477 -5.486h-1.665l3.246 6.955h1.847Zm6.255 0v-3.442c0 -1.511 0.686 -2.295 2.211 -2.295 1.441 0 2.029 0.658 2.029 1.959v3.778h1.511V13.823c0 -1.609 -0.952 -2.911 -2.883 -2.911 -1.763 0 -2.687 1.119 -2.897 2.295h-0.098v-2.155h-1.385v6.955h1.511Zm11.293 0.14c2.071 0 3.526 -1.021 3.526 -2.505v-0.126h-1.511v0.112c0 0.826 -0.602 1.301 -2.057 1.301 -1.609 0 -2.267 -0.714 -2.323 -2.057h5.905c0.042 -0.21 0.056 -0.406 0.056 -0.658 0 -2.113 -1.469 -3.302 -3.625 -3.302 -2.267 0 -3.75 1.455 -3.75 3.624 0 2.323 1.497 3.61 3.778 3.61Zm-0.056 -6.045c1.483 0 2.225 0.616 2.225 1.903v0.028h-4.52c0.084 -1.246 0.756 -1.931 2.295 -1.931Zm8.984 6.045c2.071 0 3.526 -1.021 3.526 -2.505v-0.126h-1.511v0.112c0 0.826 -0.602 1.301 -2.057 1.301 -1.609 0 -2.267 -0.714 -2.323 -2.057h5.905c0.042 -0.21 0.056 -0.406 0.056 -0.658 0 -2.113 -1.469 -3.302 -3.624 -3.302 -2.267 0 -3.75 1.455 -3.75 3.624 0 2.323 1.497 3.61 3.778 3.61Zm-0.056 -6.045c1.483 0 2.225 0.616 2.225 1.903v0.028h-4.52c0.084 -1.246 0.756 -1.931 2.295 -1.931Zm10.048 5.905v-1.358h-1.259c-0.868 0 -1.259 -0.224 -1.259 -1.077V12.312h2.519v-1.259h-2.519v-1.525h-1.497v1.525h-1.175v1.259h1.175v3.345c0 1.693 0.924 2.351 2.421 2.351h1.595Zm3.694 0.14c1.581 0 2.687 -0.7 3.05 -1.875h0.098v1.735h1.385V13.781c0 -1.665 -0.994 -2.869 -3.205 -2.869 -2.211 0 -3.526 1.189 -3.526 2.771v0.056h1.497v-0.056c0 -1.022 0.63 -1.442 1.917 -1.442 1.329 0 1.833 0.406 1.833 1.553v0.406l-3.162 0.336c-1.371 0.154 -2.239 0.714 -2.239 1.791 0 1.147 0.909 1.819 2.351 1.819Zm-0.84 -1.917c0 -0.546 0.378 -0.728 1.161 -0.825l2.729 -0.308c0 1.371 -1.063 1.959 -2.645 1.959 -0.867 0 -1.245 -0.266 -1.245 -0.826Zm13.868 0v-2.281h2.253v-1.259h-2.253v-2.281h-1.315v2.281h-2.253v1.259h2.253v2.281h1.315Zm8.746 1.777V15.18h3.079c2.085 0 3.512 -1.203 3.512 -3.275 0 -2.085 -1.427 -3.275 -3.512 -3.275h-4.59v9.376h1.511Zm2.939 -8.018c1.413 0 2.141 0.532 2.141 1.917 0 1.385 -0.728 1.917 -2.141 1.917h-2.939V9.989h2.939Zm6.773 8.018V14.103c0 -1.246 0.49 -1.903 1.679 -1.903 1.035 0 1.455 0.462 1.455 1.455v0.616h1.497v-0.91c0 -1.315 -0.686 -2.449 -2.267 -2.449 -1.427 0 -2.183 0.896 -2.393 2.015h-0.098v-1.875h-1.385v6.955h1.511Zm8.326 0.14c1.581 0 2.687 -0.7 3.051 -1.875h0.098v1.735h1.385V13.781c0 -1.665 -0.994 -2.869 -3.204 -2.869 -2.211 0 -3.526 1.189 -3.526 2.771v0.056h1.497v-0.056c0 -1.022 0.63 -1.442 1.917 -1.442 1.329 0 1.833 0.406 1.833 1.553v0.406l-3.163 0.336c-1.371 0.154 -2.239 0.714 -2.239 1.791 0 1.147 0.91 1.819 2.351 1.819Zm-0.84 -1.917c0 -0.546 0.378 -0.728 1.162 -0.825l2.729 -0.308c0 1.371 -1.064 1.959 -2.645 1.959 -0.868 0 -1.246 -0.266 -1.246 -0.826Zm10.705 1.917c1.959 0 3.246 -0.77 3.246 -2.071 0 -1.148 -0.756 -1.707 -2.407 -1.917l-1.609 -0.224c-1.05 -0.14 -1.329 -0.336 -1.329 -0.882 0 -0.658 0.448 -0.938 1.721 -0.938 1.539 0 1.959 0.434 1.959 1.259v0.084h1.497v-0.042c0 -1.651 -1.287 -2.505 -3.414 -2.505 -2.141 0 -3.246 0.867 -3.246 2.085 0 1.162 0.798 1.721 2.113 1.889l1.903 0.252c0.994 0.14 1.329 0.322 1.329 0.896 0 0.616 -0.406 0.896 -1.763 0.896 -1.455 0 -2.001 -0.294 -2.001 -1.204v-0.112h-1.511v0.042c0 1.609 1.274 2.491 3.513 2.491Zm7.081 0c1.581 0 2.687 -0.7 3.05 -1.875h0.098v1.735h1.385V13.781c0 -1.665 -0.994 -2.869 -3.205 -2.869 -2.211 0 -3.526 1.189 -3.526 2.771v0.056h1.497v-0.056c0 -1.022 0.63 -1.442 1.917 -1.442 1.329 0 1.833 0.406 1.833 1.553v0.406l-3.162 0.336c-1.371 0.154 -2.239 0.714 -2.239 1.791 0 1.147 0.909 1.819 2.351 1.819Zm-0.84 -1.917c0 -0.546 0.378 -0.728 1.161 -0.825l2.729 -0.308c0 1.371 -1.063 1.959 -2.645 1.959 -0.867 0 -1.245 -0.266 -1.245 -0.826Zm10.481 1.917c1.567 0 2.589 -0.756 2.883 -2.141h0.098v2.001h1.385V8.631h-1.511v4.31h-0.084c-0.28 -1.175 -1.217 -2.029 -2.869 -2.029 -2.113 0 -3.317 1.455 -3.317 3.624 0 2.141 1.217 3.61 3.414 3.61Zm-1.889 -3.61c0 -1.679 0.868 -2.253 2.323 -2.253 1.553 0 2.421 0.728 2.421 2.211v0.112c0 1.455 -0.909 2.155 -2.393 2.155 -1.497 0 -2.351 -0.56 -2.351 -2.225Z"
        style="fill:#fff;fill-rule:nonzero" />
</svg>