<svg width="97" height="8" viewBox="0 0 97 8" fill="none" xmlns="http://www.w3.org/2000/svg">
    <path
        d="M5.667 7.09v-1.324H1.755V0.521h-1.471v6.569h5.382zm2.304 0.098c1.088 0 1.775 -0.461 2 -1.226h0.078v1.128h1.373v-2.882c0 -1.284 -0.775 -2.128 -2.412 -2.128 -1.618 0 -2.637 0.843 -2.637 2.059v0.029h1.48v-0.039c0 -0.559 0.304 -0.755 1.049 -0.755 0.784 0 1.069 0.176 1.069 0.814v0.186l-2.108 0.216c-1.049 0.108 -1.588 0.559 -1.588 1.284 0 0.824 0.637 1.314 1.696 1.314zm-0.216 -1.412c0 -0.235 0.157 -0.333 0.51 -0.363l1.706 -0.196c-0.039 0.696 -0.578 0.931 -1.578 0.931 -0.432 0 -0.637 -0.108 -0.637 -0.372zm8.275 1.314 2.245 -4.912h-1.608l-1.48 3.48h-0.098l-1.471 -3.48h-1.637l2.235 4.912h1.814zm4.314 0V4.609c0 -0.833 0.333 -1.206 1.265 -1.206 0.902 0 1.226 0.333 1.226 1.118v2.569h1.471v-3.059c0 -1.088 -0.637 -1.951 -1.98 -1.951 -1.284 0 -1.872 0.784 -2 1.608H20.235V2.178h-1.363v4.912h1.471zm7.52 0.098c1.559 0 2.598 -0.745 2.598 -1.814v-0.108h-1.471v0.098c0 0.421 -0.304 0.647 -1.176 0.647 -0.951 0 -1.304 -0.324 -1.343 -1.079h4c0.02 -0.167 0.039 -0.294 0.039 -0.471 0 -1.539 -1.069 -2.382 -2.676 -2.382 -1.618 0 -2.726 0.99 -2.726 2.559 0 1.745 1.118 2.549 2.755 2.549zm-0.059 -3.961c0.863 0 1.255 0.284 1.294 0.932h-2.608c0.069 -0.637 0.441 -0.932 1.314 -0.932zm6.147 3.961c1.559 0 2.598 -0.745 2.598 -1.814v-0.108h-1.471v0.098c0 0.421 -0.304 0.647 -1.176 0.647 -0.951 0 -1.304 -0.324 -1.343 -1.079h4c0.02 -0.167 0.039 -0.294 0.039 -0.471 0 -1.539 -1.069 -2.382 -2.676 -2.382 -1.618 0 -2.726 0.99 -2.726 2.559 0 1.745 1.118 2.549 2.755 2.549zm-0.059 -3.961c0.863 0 1.255 0.284 1.294 0.932h-2.608c0.069 -0.637 0.441 -0.932 1.314 -0.932zm7 3.863v-1.324h-0.882c-0.52 0 -0.706 -0.128 -0.706 -0.618v-1.755h1.588V2.178h-1.588V1.227h-1.471v0.951H37.059v1.216h0.775v1.921c0 1.235 0.696 1.775 1.843 1.775h1.216zm2.265 0.098c1.088 0 1.774 -0.461 2 -1.226h0.078v1.128h1.372v-2.882c0 -1.284 -0.774 -2.128 -2.412 -2.128 -1.618 0 -2.637 0.843 -2.637 2.059v0.029h1.48v-0.039c0 -0.559 0.304 -0.755 1.049 -0.755 0.784 0 1.069 0.176 1.069 0.814v0.186l-2.108 0.216c-1.049 0.108 -1.588 0.559 -1.588 1.284 0 0.824 0.637 1.314 1.696 1.314zm-0.216 -1.412c0 -0.235 0.157 -0.333 0.51 -0.363l1.706 -0.196c-0.039 0.696 -0.579 0.931 -1.579 0.931 -0.431 0 -0.637 -0.108 -0.637 -0.372zm10.794 0.216v-1.578H55.294v-1.216h-1.559V1.619H52.471v1.578h-1.559v1.216H52.471v1.578h1.265zm7.372 1.098v-1.814h1.961c1.52 0 2.5 -0.873 2.5 -2.382 0 -1.51 -0.98 -2.373 -2.5 -2.373h-3.432v6.569h1.471zm1.804 -5.245c0.814 0 1.196 0.245 1.196 1.049 0 0.824 -0.382 1.059 -1.196 1.059h-1.804V1.844h1.804zM67.765 7.09V4.247c0 -0.618 0.235 -0.922 0.892 -0.922 0.598 0 0.814 0.235 0.814 0.775v0.51h1.471v-0.814c0 -0.961 -0.451 -1.716 -1.549 -1.716 -0.99 0 -1.51 0.608 -1.647 1.402h-0.088V2.178h-1.363v4.912H67.765zm5.422 0.098c1.088 0 1.774 -0.461 2 -1.226h0.078v1.128h1.372v-2.882c0 -1.284 -0.774 -2.128 -2.412 -2.128 -1.618 0 -2.637 0.843 -2.637 2.059v0.029h1.48v-0.039c0 -0.559 0.304 -0.755 1.049 -0.755 0.784 0 1.069 0.176 1.069 0.814v0.186l-2.108 0.216c-1.049 0.108 -1.588 0.559 -1.588 1.284 0 0.824 0.637 1.314 1.696 1.314zm-0.216 -1.412c0 -0.235 0.157 -0.333 0.51 -0.363l1.706 -0.196c-0.039 0.696 -0.579 0.931 -1.579 0.931 -0.431 0 -0.637 -0.108 -0.637 -0.372zm7.098 1.412c1.52 0 2.431 -0.608 2.431 -1.529 0 -0.814 -0.49 -1.255 -1.804 -1.402l-1.049 -0.127c-0.647 -0.079 -0.784 -0.186 -0.784 -0.441 0 -0.314 0.186 -0.441 0.921 -0.441 0.902 0 1.098 0.206 1.098 0.608v0.059H82.353v-0.029c0 -1.196 -0.912 -1.804 -2.52 -1.804 -1.686 0 -2.422 0.686 -2.422 1.549 0 0.824 0.549 1.265 1.529 1.372l1.382 0.167c0.578 0.079 0.725 0.157 0.725 0.432 0 0.294 -0.186 0.421 -0.971 0.421 -0.833 0 -1.108 -0.118 -1.108 -0.559v-0.088h-1.471v0.029c0 1.137 0.912 1.784 2.569 1.784zm4.745 0c1.088 0 1.775 -0.461 2 -1.226h0.079v1.128h1.372v-2.882c0 -1.284 -0.775 -2.128 -2.412 -2.128 -1.618 0 -2.637 0.843 -2.637 2.059v0.029h1.48v-0.039c0 -0.559 0.304 -0.755 1.049 -0.755 0.784 0 1.068 0.176 1.068 0.814v0.186l-2.108 0.216c-1.049 0.108 -1.588 0.559 -1.588 1.284 0 0.824 0.637 1.314 1.696 1.314zm-0.216 -1.412c0 -0.235 0.157 -0.333 0.51 -0.363l1.706 -0.196c-0.039 0.696 -0.578 0.931 -1.578 0.931 -0.431 0 -0.637 -0.108 -0.637 -0.372zm6.814 1.412c1.128 0 1.775 -0.49 1.961 -1.461h0.079v1.363H94.823V0.521h-1.471v2.961h-0.088c-0.167 -0.824 -0.765 -1.402 -1.931 -1.402 -1.461 0 -2.294 0.99 -2.294 2.559 0 1.549 0.843 2.549 2.372 2.549zm-0.882 -2.549c0 -0.902 0.441 -1.216 1.382 -1.216s1.441 0.314 1.441 1.167v0.078c0 0.853 -0.51 1.176 -1.441 1.176 -0.941 0 -1.382 -0.314 -1.382 -1.206z"
        style="fill:#c4c4c4;fill-rule:nonzero" />
</svg>